<?xml version="1.0" encoding="UTF-8" standalone="no"?>
<!-- Created with Inkscape (http://www.inkscape.org/) -->
<svg
   xmlns:svg="http://www.w3.org/2000/svg"
   xmlns="http://www.w3.org/2000/svg"
   version="1.0"
   width="55"
   height="54.695999"
   viewBox="0 0 55 54.696"
   id="svg6022"
   xml:space="preserve"><defs
     id="defs6036"><marker
   refX="0"
   refY="0"
   orient="auto"
   id="Arrow2Send"
   style="overflow:visible"><path
     d="M 8.7185878,4.0337352 L -2.2072895,0.016013256 L 8.7185884,-4.0017078 C 6.97309,-1.6296469 6.9831476,1.6157441 8.7185878,4.0337352 z"
     transform="matrix(-0.3,0,0,-0.3,0.69,0)"
     id="path6877"
     style="font-size:12px;fill-rule:evenodd;stroke-width:0.625;stroke-linejoin:round" /></marker><marker
   refX="0"
   refY="0"
   orient="auto"
   id="Arrow2Mend"
   style="overflow:visible"><path
     d="M 8.7185878,4.0337352 L -2.2072895,0.016013256 L 8.7185884,-4.0017078 C 6.97309,-1.6296469 6.9831476,1.6157441 8.7185878,4.0337352 z"
     transform="scale(-0.6,-0.6)"
     id="path6871"
     style="font-size:12px;fill-rule:evenodd;stroke-width:0.625;stroke-linejoin:round" /></marker><marker
   refX="0"
   refY="0"
   orient="auto"
   id="Arrow1Send"
   style="overflow:visible"><path
     d="M 0,0 L 5,-5 L -12.5,0 L 5,5 L 0,0 z"
     transform="matrix(-0.2,0,0,-0.2,-1.2,0)"
     id="path6859"
     style="fill-rule:evenodd;stroke:#000000;stroke-width:1pt;marker-start:none" /></marker><marker
   refX="0"
   refY="0"
   orient="auto"
   id="Arrow2Lend"
   style="overflow:visible"><path
     d="M 8.7185878,4.0337352 L -2.2072895,0.016013256 L 8.7185884,-4.0017078 C 6.97309,-1.6296469 6.9831476,1.6157441 8.7185878,4.0337352 z"
     transform="matrix(-1.1,0,0,-1.1,-1.1,0)"
     id="path6865"
     style="font-size:12px;fill-rule:evenodd;stroke-width:0.625;stroke-linejoin:round" /></marker><marker
   refX="0"
   refY="0"
   orient="auto"
   id="Arrow1Mend"
   style="overflow:visible"><path
     d="M 0,0 L 5,-5 L -12.5,0 L 5,5 L 0,0 z"
     transform="matrix(-0.4,0,0,-0.4,-4,0)"
     id="path6853"
     style="fill-rule:evenodd;stroke:#000000;stroke-width:1pt;marker-start:none" /></marker><marker
   refX="0"
   refY="0"
   orient="auto"
   id="Arrow1Lend"
   style="overflow:visible"><path
     d="M 0,0 L 5,-5 L -12.5,0 L 5,5 L 0,0 z"
     transform="matrix(-0.8,0,0,-0.8,-10,0)"
     id="path6847"
     style="fill-rule:evenodd;stroke:#000000;stroke-width:1pt;marker-start:none" /></marker><marker
   refX="0"
   refY="0"
   orient="auto"
   id="Arrow1Lstart"
   style="overflow:visible"><path
     d="M 0,0 L 5,-5 L -12.5,0 L 5,5 L 0,0 z"
     transform="matrix(0.8,0,0,0.8,10,0)"
     id="path6844"
     style="fill-rule:evenodd;stroke:#000000;stroke-width:1pt;marker-start:none" /></marker>
	

		
		
		
		
	<marker
   refX="0"
   refY="0"
   orient="auto"
   id="Arrow1Lendn"
   style="overflow:visible"><path
     d="M 0,0 L 5,-5 L -12.5,0 L 5,5 L 0,0 z"
     transform="matrix(-0.8,0,0,-0.8,-10,0)"
     id="path10748"
     style="fill:#ffffff;fill-rule:evenodd;stroke:#ffffff;stroke-width:1pt;marker-start:none" /></marker><marker
   refX="0"
   refY="0"
   orient="auto"
   id="Arrow2LendM"
   style="overflow:visible"><path
     d="M 8.7185878,4.0337352 L -2.2072895,0.016013256 L 8.7185884,-4.0017078 C 6.97309,-1.6296469 6.9831476,1.6157441 8.7185878,4.0337352 z"
     transform="matrix(-1.1,0,0,-1.1,-1.1,0)"
     id="path11860"
     style="font-size:12px;fill:#ffffff;fill-rule:evenodd;stroke:#ffffff;stroke-width:0.625;stroke-linejoin:round" /></marker><marker
   refX="0"
   refY="0"
   orient="auto"
   id="Arrow2Sendb"
   style="overflow:visible"><path
     d="M 8.7185878,4.0337352 L -2.2072895,0.016013256 L 8.7185884,-4.0017078 C 6.97309,-1.6296469 6.9831476,1.6157441 8.7185878,4.0337352 z"
     transform="matrix(-0.3,0,0,-0.3,0.69,0)"
     id="path13586"
     style="font-size:12px;fill:#ffffff;fill-rule:evenodd;stroke:#ffffff;stroke-width:0.625;stroke-linejoin:round" /></marker></defs><line
     style="fill:none;stroke:#ffffff;stroke-width:5;marker-start:none;marker-end:url(#Arrow2Sendb);stroke-miterlimit:4;stroke-dasharray:none;stroke-opacity:1"
     id="line6029"
     y2="29.616528"
     y1="29.485809"
     x2="18.080822"
     x1="41.938137" /></svg>