<?xml version="1.0" encoding="UTF-8" standalone="no"?>
<svg
   xmlns:dc="http://purl.org/dc/elements/1.1/"
   xmlns:cc="http://creativecommons.org/ns#"
   xmlns:rdf="http://www.w3.org/1999/02/22-rdf-syntax-ns#"
   xmlns:svg="http://www.w3.org/2000/svg"
   xmlns="http://www.w3.org/2000/svg"
   xmlns:sodipodi="http://sodipodi.sourceforge.net/DTD/sodipodi-0.dtd"
   xmlns:inkscape="http://www.inkscape.org/namespaces/inkscape"
   version="1.1"
   id="schatztruhe_auf"
   x="0px"
   y="0px"
   width="55px"
   height="55px"
   viewBox="-5 -5 60 60"
   enable-background="new 5 5 45 45"
   xml:space="preserve"
   sodipodi:version="0.32"
   inkscape:version="0.46"
   sodipodi:docname="place-cache.svg"
   inkscape:output_extension="org.inkscape.output.svg.inkscape"><metadata
   id="metadata8"><rdf:RDF><cc:Work
       rdf:about=""><dc:format>image/svg+xml</dc:format><dc:type
         rdf:resource="http://purl.org/dc/dcmitype/StillImage" /></cc:Work></rdf:RDF></metadata><defs
   id="defs6"><inkscape:perspective
     sodipodi:type="inkscape:persp3d"
     inkscape:vp_x="0 : 27.5 : 1"
     inkscape:vp_y="0 : 1000 : 0"
     inkscape:vp_z="55 : 27.5 : 1"
     inkscape:persp3d-origin="27.5 : 18.333333 : 1"
     id="perspective10" /><inkscape:perspective
     id="perspective2466"
     inkscape:persp3d-origin="27.5 : 18.40625 : 1"
     inkscape:vp_z="55 : 27.609375 : 1"
     inkscape:vp_y="0 : 1000 : 0"
     inkscape:vp_x="0 : 27.609375 : 1"
     sodipodi:type="inkscape:persp3d" /></defs><sodipodi:namedview
   inkscape:window-height="821"
   inkscape:window-width="1158"
   inkscape:pageshadow="2"
   inkscape:pageopacity="0.0"
   guidetolerance="10.0"
   gridtolerance="10.0"
   objecttolerance="10.0"
   borderopacity="1.0"
   bordercolor="#666666"
   pagecolor="#ffffff"
   id="base"
   showgrid="false"
   inkscape:zoom="8.8"
   inkscape:cx="20.622724"
   inkscape:cy="27.613636"
   inkscape:window-x="0"
   inkscape:window-y="24"
   inkscape:current-layer="schatztruhe_auf" />
		<path
   d="M 33.623097,35.362329 L 33.36819,33.331869 L 34.769754,31.839038 L 32.758813,31.45404 L 31.770081,29.661955 L 30.779629,31.45404 L 28.768689,31.839038 L 30.168537,33.331869 L 29.913629,35.362329 L 31.770081,34.492009 L 33.623097,35.362329 z M 12.446855,34.13445 L 10.670225,28.927971 L 39.859332,28.927971 L 37.646696,35.407774 C 37.949667,35.775623 38.165095,36.193205 38.240622,36.646799 C 40.371721,34.595762 41.842806,30.928418 41.993862,26.68229 L 8.2696269,26.68229 C 8.3854938,29.927767 9.26866,32.838832 10.629887,34.947321 C 11.117386,34.551175 11.746503,34.269071 12.446855,34.13445 z M 28.778129,37.609724 C 28.672563,38.004154 28.778129,38.396014 29.009006,38.708984 L 31.316052,38.708984 C 31.39158,38.596658 31.455952,38.474041 31.492,38.33599 C 31.68511,37.624302 31.230225,36.886887 30.479231,36.685386 C 29.731674,36.486454 28.969527,36.898893 28.778129,37.609724 z M 34.253071,21.709896 L 16.255027,21.709896 C 12.258035,21.709896 9.0000201,23.479688 8.7717179,25.711648 L 41.73638,25.711648 C 41.508078,23.479688 38.250064,21.709896 34.253071,21.709896 z M 23.03798,24.000164 L 15.721179,24.000164 C 15.428507,24.000164 15.191623,23.761789 15.191623,23.471113 C 15.191623,23.17872 15.427648,22.942919 15.721179,22.942919 L 23.03798,22.942919 L 23.03798,24.000164 z M 34.586941,24.000164 L 26.740584,24.000164 L 26.740584,22.942062 L 34.586941,22.942062 C 34.880471,22.942062 35.117356,23.177862 35.117356,23.470257 C 35.118213,23.760934 34.880471,24.000164 34.586941,24.000164 z M 16.570873,37.159559 L 18.124351,35.826214 L 20.143874,36.167482 L 19.356836,34.27936 L 20.306089,32.468411 L 18.264249,32.632185 L 16.832645,31.170221 L 16.359736,33.16038 L 14.525599,34.069283 L 16.273908,35.133387 L 16.570873,37.159559 z M 44.311208,41.53259 L 44.311208,39.67191 L 5.688792,39.67191 L 5.688792,41.53259 L 18.783507,41.53259 L 18.783507,42.84793 L 8.4241174,42.84793 L 8.4241174,46.86426 L 18.783507,46.86426 L 18.783507,48.177026 L 8.4241174,48.177026 L 8.4241174,52.194213 L 41.575024,52.194213 L 41.575024,48.177026 L 30.951285,48.177026 L 30.951285,46.86426 L 41.575024,46.86426 L 41.575024,42.84793 L 30.951285,42.84793 L 30.951285,41.53259 L 44.311208,41.53259 L 44.311208,41.53259 z M 22.274976,50.36783 L 23.625041,44.663168 C 23.081753,44.291031 22.725569,43.668516 22.725569,42.963688 C 22.725569,41.826698 23.649931,40.904931 24.788005,40.904931 C 25.92608,40.904931 26.848726,41.826698 26.848726,42.963688 C 26.848726,43.739685 26.415297,44.407645 25.780173,44.758344 L 27.106208,50.368689 L 22.274976,50.368689 L 22.274976,50.36783 z M 21.794338,34.811841 C 22.571936,34.811841 23.200195,34.214195 23.200195,33.479352 C 23.200195,32.743656 22.571936,32.146007 21.794338,32.146007 C 21.019314,32.146007 20.389341,32.742797 20.389341,33.479352 C 20.389341,34.214195 21.019314,34.811841 21.794338,34.811841 z M 36.879395,38.708984 C 37.008136,37.528266 36.219382,36.382704 34.976599,36.047438 C 33.60679,35.683018 32.2181,36.436723 31.867923,37.733199 C 31.780378,38.060747 31.770081,38.391725 31.821576,38.708984 L 36.879395,38.708984 L 36.879395,38.708984 z M 10.875353,38.413161 C 10.875353,38.514342 10.894236,38.610377 10.907968,38.708984 L 15.973512,38.708984 C 15.985528,38.611235 16.00441,38.514342 16.00441,38.413161 C 16.00441,37.072099 14.856036,35.983128 13.439882,35.983128 C 12.024584,35.983128 10.875353,37.072099 10.875353,38.413161 z M 25.218861,38.708984 C 25.221434,38.694409 25.226584,38.681546 25.227443,38.666969 C 25.375925,38.694409 25.523547,38.705554 25.670313,38.708984 L 25.860851,38.708984 C 27.054712,38.672114 28.118116,37.922696 28.427955,36.766843 C 28.811603,35.332317 27.897539,33.842057 26.386115,33.438194 C 24.874691,33.031761 23.336661,33.866067 22.951295,35.300592 C 22.905807,35.471226 22.880917,35.642717 22.870617,35.814209 C 22.721277,35.792773 22.571079,35.770479 22.414015,35.770479 C 20.849377,35.770479 19.579987,36.972635 19.579987,38.457749 C 19.579987,38.543496 19.598011,38.624097 19.606594,38.708984 L 25.218861,38.708984 L 25.218861,38.708984 z"
   id="path3"
   style="fill:#ffffff;stroke:#666666;stroke-width:1" />
<path
   style="fill:none;fill-opacity:1;fill-rule:evenodd;stroke:#666666;stroke-width:2.99999976000000013;stroke-linecap:round;stroke-linejoin:round;stroke-miterlimit:4;stroke-dasharray:none;stroke-dashoffset:0;stroke-opacity:1"
   id="rect2389"
   d="M 24.905171,19.598717 L 37.317217,12.201074 L 31.40282,12.201074 L 31.40282,-2.3099172 L 18.407523,-2.3099172 L 18.407523,12.201074 L 12.682783,12.201074 L 24.905171,19.598717 z" /></svg>