<?xml version="1.0" encoding="UTF-8"?>
<!DOCTYPE svg PUBLIC "-//W3C//DTD SVG 1.1//EN" "http://www.w3.org/Graphics/SVG/1.1/DTD/svg11.dtd" [
    <!ENTITY stroke_color "#666666">
    <!ENTITY fill_color "#FFFFFF">
]>
<svg version="1.1" id="schatztruhe_auf" xmlns="http://www.w3.org/2000/svg" xmlns:xlink="http://www.w3.org/1999/xlink" x="0px" y="0px"
	 width="55px" height="55px" viewBox="-5 -5 60 60" enable-background="new 5 5 45 45" xml:space="preserve">
		<path fill="&fill_color;" stroke="&stroke_color;" d="M32.547,20.646l-0.297-2.368l1.633-1.741l-2.343-0.449l-1.152-2.09l-1.154,2.09
			l-2.343,0.449l1.631,1.741l-0.297,2.368l2.163-1.015L32.547,20.646z M7.874,19.214l-2.07-6.072h34.009l-2.578,7.557
			c0.353,0.429,0.604,0.916,0.692,1.445c2.483-2.392,4.197-6.669,4.373-11.621H3.007c0.135,3.785,1.164,7.18,2.75,9.639
			C6.325,19.7,7.058,19.371,7.874,19.214z M26.902,23.267c-0.123,0.46,0,0.917,0.269,1.282h2.688
			c0.088-0.131,0.163-0.274,0.205-0.435c0.225-0.83-0.305-1.69-1.18-1.925C28.013,21.957,27.125,22.438,26.902,23.267z
			 M33.281,4.724H12.311c-4.657,0-8.453,2.064-8.719,4.667H42C41.734,6.788,37.938,4.724,33.281,4.724z M20.214,7.395h-8.525
			c-0.341,0-0.617-0.278-0.617-0.617c0-0.341,0.275-0.616,0.617-0.616h8.525V7.395z M33.67,7.395h-9.142V6.161h9.142
			c0.342,0,0.618,0.275,0.618,0.616C34.289,7.116,34.012,7.395,33.67,7.395z M12.679,22.742l1.81-1.555l2.353,0.398l-0.917-2.202
			l1.106-2.112l-2.379,0.191l-1.668-1.705l-0.551,2.321l-2.137,1.06l2.037,1.241L12.679,22.742z M45,27.842v-2.17H0v2.17h15.257
			v1.534H3.187v4.684h12.07v1.531H3.187v4.685h38.625v-4.685H29.434V34.06h12.378v-4.684H29.434v-1.534H45z M19.325,38.146
			l1.573-6.653c-0.633-0.434-1.048-1.16-1.048-1.982c0-1.326,1.077-2.401,2.403-2.401c1.326,0,2.401,1.075,2.401,2.401
			c0,0.905-0.505,1.684-1.245,2.093l1.545,6.543H19.325z M18.765,20.004c0.906,0,1.638-0.697,1.638-1.554
			c0-0.858-0.732-1.555-1.638-1.555c-0.903,0-1.637,0.696-1.637,1.555C17.128,19.307,17.862,20.004,18.765,20.004z M36.341,24.549
			c0.15-1.377-0.769-2.713-2.217-3.104c-1.596-0.425-3.214,0.454-3.622,1.966c-0.102,0.382-0.114,0.768-0.054,1.138H36.341z
			 M6.043,24.204c0,0.118,0.022,0.23,0.038,0.345h5.902c0.014-0.114,0.036-0.227,0.036-0.345c0-1.564-1.338-2.834-2.988-2.834
			C7.382,21.37,6.043,22.64,6.043,24.204z M22.755,24.549c0.003-0.017,0.009-0.032,0.01-0.049c0.173,0.032,0.345,0.045,0.516,0.049
			h0.222c1.391-0.043,2.63-0.917,2.991-2.265c0.447-1.673-0.618-3.411-2.379-3.882c-1.761-0.474-3.553,0.499-4.002,2.172
			c-0.053,0.199-0.082,0.399-0.094,0.599c-0.174-0.025-0.349-0.051-0.532-0.051c-1.823,0-3.302,1.402-3.302,3.134
			c0,0.1,0.021,0.194,0.031,0.293H22.755z"/>
</svg>