<?xml version="1.0" encoding="UTF-8" standalone="no"?>
<svg
   xmlns:dc="http://purl.org/dc/elements/1.1/"
   xmlns:cc="http://creativecommons.org/ns#"
   xmlns:rdf="http://www.w3.org/1999/02/22-rdf-syntax-ns#"
   xmlns:svg="http://www.w3.org/2000/svg"
   xmlns="http://www.w3.org/2000/svg"
   xmlns:sodipodi="http://sodipodi.sourceforge.net/DTD/sodipodi-0.dtd"
   xmlns:inkscape="http://www.inkscape.org/namespaces/inkscape"
   enable-background="new 0 0 55 55"
   height="20px"
   version="1.1"
   viewBox="0 0 55 55"
   width="20px"
   x="0px"
   xml:space="preserve"
   y="0px"
   id="svg2437"
   sodipodi:version="0.32"
   inkscape:version="0.46"
   sodipodi:docname="show-all-players.svg"
   inkscape:output_extension="org.inkscape.output.svg.inkscape"><metadata
     id="metadata2447"><rdf:RDF><cc:Work
         rdf:about=""><dc:format>image/svg+xml</dc:format><dc:type
           rdf:resource="http://purl.org/dc/dcmitype/StillImage" /></cc:Work></rdf:RDF></metadata><defs
     id="defs2445"><inkscape:perspective
   sodipodi:type="inkscape:persp3d"
   inkscape:vp_x="0 : 10 : 1"
   inkscape:vp_y="0 : 1000 : 0"
   inkscape:vp_z="20 : 10 : 1"
   inkscape:persp3d-origin="10 : 6.6666667 : 1"
   id="perspective2449" />
	
	
</defs><sodipodi:namedview
     inkscape:window-height="834"
     inkscape:window-width="1440"
     inkscape:pageshadow="2"
     inkscape:pageopacity="0.0"
     guidetolerance="10.0"
     gridtolerance="10.0"
     objecttolerance="10.0"
     borderopacity="1.0"
     bordercolor="#666666"
     pagecolor="#ffffff"
     id="base"
     showgrid="false"
     inkscape:zoom="24.2"
     inkscape:cx="-3.429752"
     inkscape:cy="10.020661"
     inkscape:window-x="0"
     inkscape:window-y="24"
     inkscape:current-layer="svg2437" /><g
     id="g3225"
     transform="translate(9.2045454,-0.4545455)"
     style="fill:none;stroke:#ffffff;stroke-opacity:1"><path
       d="M 18.822797,15.424762 L 22.606026,19.386317 C 22.887652,19.680492 23.061796,20.085668 23.061796,20.536344 C 23.061796,21.433381 22.367093,22.161366 21.509107,22.161366 C 21.080301,22.161366 20.693439,21.979762 20.411064,21.686372 L 16.627836,17.723641 L 12.845357,21.685195 C 12.56448,21.97937 12.17612,22.160189 11.746565,22.160189 C 10.891201,22.160189 10.195,21.432989 10.195,20.535952 C 10.195,20.086453 10.369144,19.679315 10.648897,19.38514 L 14.432874,15.422801 L 10.649646,11.461247 C 10.369893,11.167857 10.195749,10.761111 10.195749,10.312004 C 10.195749,9.4141824 10.890077,8.6858055 11.748438,8.6858055 C 12.176495,8.6858055 12.564854,8.8681939 12.845731,9.1619765 L 16.627836,13.124315 L 20.411064,9.1615843 C 20.693439,8.8678017 21.080301,8.6854133 21.509856,8.6854133 C 22.367093,8.6854133 23.062545,9.4133979 23.062545,10.311219 C 23.062545,10.760719 22.887652,11.166288 22.606775,11.461247 L 18.822797,15.424762 z"
       id="path2440"
       style="fill:none;stroke:#ffffff;stroke-width:1.34200001000000002;stroke-miterlimit:4;stroke-dasharray:none;stroke-opacity:1" /><circle
       transform="matrix(0.3745029,0,0,0.3922331,6.3769426,1.6573806)"
       cx="27.371"
       cy="10.849"
       r="8.1219997"
       id="circle2442"
       sodipodi:cx="27.371"
       sodipodi:cy="10.849"
       sodipodi:rx="8.1219997"
       sodipodi:ry="8.1219997"
       style="fill:none;stroke:#ffffff;stroke-width:3.50148940000000009;stroke-miterlimit:4;stroke-dasharray:none;stroke-opacity:1" /></g><g
     id="g3229"
     transform="translate(25.984864,4.1467259)"
     style="fill:none;stroke:#ffffff;stroke-opacity:1"><path
       d="M 18.822797,15.424762 L 22.606026,19.386317 C 22.887652,19.680492 23.061796,20.085668 23.061796,20.536344 C 23.061796,21.433381 22.367093,22.161366 21.509107,22.161366 C 21.080301,22.161366 20.693439,21.979762 20.411064,21.686372 L 16.627836,17.723641 L 12.845357,21.685195 C 12.56448,21.97937 12.17612,22.160189 11.746565,22.160189 C 10.891201,22.160189 10.195,21.432989 10.195,20.535952 C 10.195,20.086453 10.369144,19.679315 10.648897,19.38514 L 14.432874,15.422801 L 10.649646,11.461247 C 10.369893,11.167857 10.195749,10.761111 10.195749,10.312004 C 10.195749,9.4141824 10.890077,8.6858055 11.748438,8.6858055 C 12.176495,8.6858055 12.564854,8.8681939 12.845731,9.1619765 L 16.627836,13.124315 L 20.411064,9.1615843 C 20.693439,8.8678017 21.080301,8.6854133 21.509856,8.6854133 C 22.367093,8.6854133 23.062545,9.4133979 23.062545,10.311219 C 23.062545,10.760719 22.887652,11.166288 22.606775,11.461247 L 18.822797,15.424762 z"
       id="path3231"
       style="fill:none;stroke:#ffffff;stroke-width:1.34200001000000002;stroke-miterlimit:4;stroke-dasharray:none;stroke-opacity:1" /><circle
       transform="matrix(0.3745029,0,0,0.3922331,6.3769426,1.6573806)"
       cx="27.371"
       cy="10.849"
       r="8.1219997"
       id="circle3233"
       sodipodi:cx="27.371"
       sodipodi:cy="10.849"
       sodipodi:rx="8.1219997"
       sodipodi:ry="8.1219997"
       style="fill:none;stroke:#ffffff;stroke-width:3.50148940000000009;stroke-miterlimit:4;stroke-dasharray:none;stroke-opacity:1" /></g><g
     id="g3235"
     transform="translate(-0.6060452,30.510362)"
     style="fill:none;stroke:#ffffff;stroke-opacity:1"><path
       d="M 18.822797,15.424762 L 22.606026,19.386317 C 22.887652,19.680492 23.061796,20.085668 23.061796,20.536344 C 23.061796,21.433381 22.367093,22.161366 21.509107,22.161366 C 21.080301,22.161366 20.693439,21.979762 20.411064,21.686372 L 16.627836,17.723641 L 12.845357,21.685195 C 12.56448,21.97937 12.17612,22.160189 11.746565,22.160189 C 10.891201,22.160189 10.195,21.432989 10.195,20.535952 C 10.195,20.086453 10.369144,19.679315 10.648897,19.38514 L 14.432874,15.422801 L 10.649646,11.461247 C 10.369893,11.167857 10.195749,10.761111 10.195749,10.312004 C 10.195749,9.4141824 10.890077,8.6858055 11.748438,8.6858055 C 12.176495,8.6858055 12.564854,8.8681939 12.845731,9.1619765 L 16.627836,13.124315 L 20.411064,9.1615843 C 20.693439,8.8678017 21.080301,8.6854133 21.509856,8.6854133 C 22.367093,8.6854133 23.062545,9.4133979 23.062545,10.311219 C 23.062545,10.760719 22.887652,11.166288 22.606775,11.461247 L 18.822797,15.424762 z"
       id="path3237"
       style="fill:none;stroke:#ffffff;stroke-width:1.34200001000000002;stroke-miterlimit:4;stroke-dasharray:none;stroke-opacity:1" /><circle
       transform="matrix(0.3745029,0,0,0.3922331,6.3769426,1.6573806)"
       cx="27.371"
       cy="10.849"
       r="8.1219997"
       id="circle3239"
       sodipodi:cx="27.371"
       sodipodi:cy="10.849"
       sodipodi:rx="8.1219997"
       sodipodi:ry="8.1219997"
       style="fill:none;stroke:#ffffff;stroke-width:3.50148940000000009;stroke-miterlimit:4;stroke-dasharray:none;stroke-opacity:1" /></g><g
     id="g3241"
     transform="translate(20.18941,22.669454)"
     style="fill:none;stroke:#ffffff;stroke-opacity:1"><path
       d="M 18.822797,15.424762 L 22.606026,19.386317 C 22.887652,19.680492 23.061796,20.085668 23.061796,20.536344 C 23.061796,21.433381 22.367093,22.161366 21.509107,22.161366 C 21.080301,22.161366 20.693439,21.979762 20.411064,21.686372 L 16.627836,17.723641 L 12.845357,21.685195 C 12.56448,21.97937 12.17612,22.160189 11.746565,22.160189 C 10.891201,22.160189 10.195,21.432989 10.195,20.535952 C 10.195,20.086453 10.369144,19.679315 10.648897,19.38514 L 14.432874,15.422801 L 10.649646,11.461247 C 10.369893,11.167857 10.195749,10.761111 10.195749,10.312004 C 10.195749,9.4141824 10.890077,8.6858055 11.748438,8.6858055 C 12.176495,8.6858055 12.564854,8.8681939 12.845731,9.1619765 L 16.627836,13.124315 L 20.411064,9.1615843 C 20.693439,8.8678017 21.080301,8.6854133 21.509856,8.6854133 C 22.367093,8.6854133 23.062545,9.4133979 23.062545,10.311219 C 23.062545,10.760719 22.887652,11.166288 22.606775,11.461247 L 18.822797,15.424762 z"
       id="path3243"
       style="fill:none;stroke:#ffffff;stroke-width:1.34200001000000002;stroke-miterlimit:4;stroke-dasharray:none;stroke-opacity:1" /><circle
       transform="matrix(0.3745029,0,0,0.3922331,6.3769426,1.6573806)"
       cx="27.371"
       cy="10.849"
       r="8.1219997"
       id="circle3245"
       sodipodi:cx="27.371"
       sodipodi:cy="10.849"
       sodipodi:rx="8.1219997"
       sodipodi:ry="8.1219997"
       style="fill:none;stroke:#ffffff;stroke-width:3.50148940000000009;stroke-miterlimit:4;stroke-dasharray:none;stroke-opacity:1" /></g><g
     id="g3247"
     transform="translate(-6.2878636,6.5330894)"
     style="fill:none;stroke:#ffffff;stroke-opacity:1"><path
       d="M 18.822797,15.424762 L 22.606026,19.386317 C 22.887652,19.680492 23.061796,20.085668 23.061796,20.536344 C 23.061796,21.433381 22.367093,22.161366 21.509107,22.161366 C 21.080301,22.161366 20.693439,21.979762 20.411064,21.686372 L 16.627836,17.723641 L 12.845357,21.685195 C 12.56448,21.97937 12.17612,22.160189 11.746565,22.160189 C 10.891201,22.160189 10.195,21.432989 10.195,20.535952 C 10.195,20.086453 10.369144,19.679315 10.648897,19.38514 L 14.432874,15.422801 L 10.649646,11.461247 C 10.369893,11.167857 10.195749,10.761111 10.195749,10.312004 C 10.195749,9.4141824 10.890077,8.6858055 11.748438,8.6858055 C 12.176495,8.6858055 12.564854,8.8681939 12.845731,9.1619765 L 16.627836,13.124315 L 20.411064,9.1615843 C 20.693439,8.8678017 21.080301,8.6854133 21.509856,8.6854133 C 22.367093,8.6854133 23.062545,9.4133979 23.062545,10.311219 C 23.062545,10.760719 22.887652,11.166288 22.606775,11.461247 L 18.822797,15.424762 z"
       id="path3249"
       style="fill:none;stroke:#ffffff;stroke-width:1.34200001000000002;stroke-miterlimit:4;stroke-dasharray:none;stroke-opacity:1" /><circle
       transform="matrix(0.3745029,0,0,0.3922331,6.3769426,1.6573806)"
       cx="27.371"
       cy="10.849"
       r="8.1219997"
       id="circle3251"
       sodipodi:cx="27.371"
       sodipodi:cy="10.849"
       sodipodi:rx="8.1219997"
       sodipodi:ry="8.1219997"
       style="fill:none;stroke:#ffffff;stroke-width:3.50148940000000009;stroke-miterlimit:4;stroke-dasharray:none;stroke-opacity:1" /></g></svg>