<?xml version="1.0" encoding="UTF-8" standalone="no"?>
<!-- Created with Inkscape (http://www.inkscape.org/) -->
<svg
   xmlns:svg="http://www.w3.org/2000/svg"
   xmlns="http://www.w3.org/2000/svg"
   version="1.0"
   width="55"
   height="55"
   viewBox="0 0 55 55"
   id="svg24503"
   xml:space="preserve"><defs
   id="defs24577">
    
  
      
      
    
        
        
        
        
        
        
        
        
        
        
        
      
          
          
          
          
          
          
          
          
          
          
        </defs>
  
  
<g
   transform="translate(-0.9054628,0.1810926)"
   id="g34856"><path
     d="M 19.376904,44.496631 L 30.242457,35.804189"
     id="path34842"
     style="fill:none;fill-rule:evenodd;stroke:#fffffe;stroke-width:3;stroke-linecap:round;stroke-linejoin:round;stroke-miterlimit:4;stroke-dasharray:none;stroke-opacity:1" /><path
     d="M 21.337137,35.413608 L 31.179701,45.249398"
     id="path34844"
     style="fill:none;fill-rule:evenodd;stroke:#fffffe;stroke-width:3.00000024;stroke-linecap:round;stroke-linejoin:round;stroke-miterlimit:4;stroke-dasharray:none;stroke-opacity:1" /></g><path
   d="M 24.703848,38.19528 L 18.21509,6.7924899"
   id="path34846"
   style="fill:none;fill-rule:evenodd;stroke:#ffffff;stroke-width:2.5;stroke-linecap:round;stroke-linejoin:miter;stroke-miterlimit:4;stroke-dasharray:none;stroke-opacity:1" /><path
   d="M 19.838374,5.9459405 C 20.247141,5.8122785 20.608897,5.5744755 21.025604,5.4571135 C 21.814838,5.3465835 22.614447,5.3548005 23.409106,5.3446625 C 23.914547,5.4270515 24.448508,5.4291325 24.940457,5.5941365 C 24.967017,5.6030445 25.4986,5.8391975 25.532601,5.8542585 C 26.072949,6.0609485 26.568935,6.3816945 27.08207,6.6544895 C 27.596638,6.9111895 28.100303,7.1913895 28.620074,7.4362755 C 29.096922,7.7394995 29.582638,8.0259955 30.062943,8.3234425 C 30.530955,8.5685115 30.996246,8.8199655 31.470974,9.0498575 C 31.898645,9.2768372 32.32443,9.4912462 32.792068,9.6034452 C 33.239274,9.7744872 33.714628,9.8078562 34.184714,9.8363052 C 34.74683,9.8607582 35.309537,9.8614732 35.872024,9.8633352 C 36.5933,9.9040462 37.287356,9.6989012 37.988018,9.5531322 C 38.666606,9.4043312 39.292456,9.0909415 39.96387,8.9126255 C 40.362739,8.7936605 40.728,8.5812165 41.091588,8.3769965 C 36.73822,11.265573 40.359944,8.4313705 41.937976,7.9641035 C 42.323311,7.8488425 42.705552,7.8720545 43.096046,7.9257955 C 43.566111,8.0457075 44.031474,8.2239575 44.46132,8.4613615 C 44.713949,8.5806315 44.587806,8.5170195 44.83956,8.6526225 L 42.762043,10.113161 C 42.510962,9.9843502 42.637492,10.048656 42.382433,9.9202812 C 41.969395,9.7056402 41.529017,9.5247542 41.071361,9.4628922 C 40.695633,9.4344512 40.323405,9.4630092 39.965017,9.5975212 C 39.780621,9.6717142 39.822027,9.6512062 39.643076,9.7385512 C 39.591947,9.7635082 39.442086,9.8457662 39.490445,9.8151622 C 40.159091,9.3920182 40.831852,8.9763105 41.504548,8.5605415 C 41.542576,8.5370375 41.431277,8.6123455 41.394642,8.6382475 C 40.642886,9.1088742 39.891129,9.5795012 39.139374,10.050128 C 38.781232,10.250007 38.398989,10.405916 38.007606,10.512865 C 37.350637,10.707038 36.722358,11.004353 36.045719,11.122218 C 35.330917,11.277357 34.617036,11.448797 33.881412,11.40635 C 33.313027,11.406872 32.743813,11.412607 32.176383,11.371709 C 31.690456,11.331989 31.204676,11.280185 30.740795,11.109462 C 30.274833,10.960494 29.845403,10.724819 29.40447,10.508854 C 28.931194,10.264736 28.456273,10.025445 27.994332,9.7572182 C 27.517392,9.4657682 27.038251,9.1784092 26.557823,8.8935365 C 26.04443,8.6270855 25.529524,8.3663935 25.015123,8.1023955 C 24.515431,7.8203605 24.017697,7.5242185 23.486971,7.3140815 C 22.829303,7.0302645 22.163971,6.8930975 21.452482,6.8659985 C 20.655077,6.8788045 19.840531,6.8671215 19.062922,7.0781405 C 18.655945,7.2366085 18.268833,7.4469425 17.870006,7.6261725 L 19.838374,5.9459405 z"
   id="path34848"
   style="opacity:1;fill:#ffffff;fill-opacity:1;fill-rule:nonzero;stroke:#ffffff;stroke-width:1.29999995;stroke-linecap:round;stroke-linejoin:round;stroke-miterlimit:4;stroke-dasharray:none;stroke-dashoffset:0;stroke-opacity:1" /><path
   d="M 43.592945,10.067023 C 47.555984,7.8050441 45.81759,8.5648551 45.205573,9.3573788 C 44.908741,9.7417578 44.722168,10.181258 44.53701,10.625198 C 44.235424,11.511666 44.071719,12.444665 44.171045,13.378263 C 44.306038,14.277466 44.642527,15.130553 44.936231,15.986736 C 45.196648,16.85843 45.447461,17.733011 45.753115,18.590138 C 46.017379,19.368865 46.239986,20.161124 46.471313,20.950156 C 46.722497,21.673945 46.857537,22.42329 46.931344,23.183386 C 46.963247,23.670955 46.950205,23.427308 46.970513,23.914324 L 44.643119,25.111346 C 44.626697,24.63176 44.637445,24.871427 44.610878,24.392346 C 44.547793,23.646386 44.429429,22.908582 44.182294,22.198631 C 43.959046,21.411543 43.730658,20.625573 43.479204,19.847027 C 43.182666,18.986113 42.927954,18.110299 42.662404,17.239667 C 42.37456,16.363064 42.028731,15.49635 41.873493,14.583581 C 41.853308,14.430418 41.821819,14.278323 41.812938,14.124092 C 41.765939,13.307871 41.995126,12.488981 42.197647,11.708666 C 42.96901,9.6309278 43.403711,9.6700668 45.693483,8.3867911 L 43.592945,10.067023 z"
   id="path34852"
   style="opacity:1;fill:#ffffff;fill-opacity:1;fill-rule:nonzero;stroke:#ffffff;stroke-width:1.29999995;stroke-linecap:round;stroke-linejoin:round;stroke-miterlimit:4;stroke-dasharray:none;stroke-dashoffset:0;stroke-opacity:1" /><path
   d="M 21.521621,23.709257 C 22.297338,23.217441 23.064143,22.708298 23.848771,22.23381 C 24.117858,22.071084 24.423568,21.995403 24.710757,21.875594 C 25.290311,21.633819 25.866748,21.411398 26.459758,21.212078 C 27.625678,20.845668 28.787749,21.099183 29.939869,21.385112 C 31.170287,21.652982 32.38497,21.991733 33.587717,22.380855 C 34.586546,22.708949 35.572363,23.079913 36.572283,23.403613 C 37.651441,23.791326 38.785777,23.892074 39.912116,23.96259 C 40.842274,23.987242 41.776306,24.045556 42.705515,23.973834 C 43.466398,23.926137 44.221665,23.828963 44.978944,23.738884 C 45.629711,23.628663 46.268751,23.675317 46.901206,23.865146 C 47.12296,23.962263 47.34317,24.062623 47.566572,24.155073 L 45.559275,25.632269 C 45.349018,25.537192 45.141108,25.434555 44.923522,25.360595 C 44.310681,25.202584 43.696612,25.189947 43.072942,25.293255 C 42.315833,25.383317 41.558538,25.468345 40.797648,25.510694 C 39.87456,25.539014 38.950238,25.505268 38.028704,25.443714 C 36.885788,25.351705 35.734704,25.241099 34.637296,24.854149 C 33.643753,24.525104 32.667786,24.136994 31.671225,23.817952 C 30.479769,23.427002 29.277869,23.077374 28.055114,22.823404 C 26.89658,22.577485 25.792069,22.367537 24.633869,22.762324 C 24.038199,22.969318 23.457578,23.197898 22.878093,23.45467 C 22.70966,23.529304 22.540132,23.601194 22.373876,23.681491 C 22.243254,23.744577 21.865931,23.966077 21.987832,23.884641 C 22.581489,23.488048 23.18967,23.11825 23.79059,22.735054 L 21.521621,23.709257 z"
   id="path34854"
   style="opacity:1;fill:#ffffff;fill-opacity:1;fill-rule:nonzero;stroke:#ffffff;stroke-width:1.29999983;stroke-linecap:round;stroke-linejoin:round;stroke-miterlimit:4;stroke-dasharray:none;stroke-dashoffset:0;stroke-opacity:1" /></svg>