<?xml version="1.0" encoding="UTF-8" standalone="no"?>
<svg
   xmlns:dc="http://purl.org/dc/elements/1.1/"
   xmlns:cc="http://creativecommons.org/ns#"
   xmlns:rdf="http://www.w3.org/1999/02/22-rdf-syntax-ns#"
   xmlns:svg="http://www.w3.org/2000/svg"
   xmlns="http://www.w3.org/2000/svg"
   xmlns:sodipodi="http://sodipodi.sourceforge.net/DTD/sodipodi-0.dtd"
   xmlns:inkscape="http://www.inkscape.org/namespaces/inkscape"
   enable-background="new 0 0 55 55"
   height="20px"
   version="1.1"
   viewBox="0 0 55 55"
   width="20px"
   x="0px"
   xml:space="preserve"
   y="0px"
   id="svg3412"
   sodipodi:version="0.32"
   inkscape:version="0.46"
   sodipodi:docname="show-player-grey.svg"
   inkscape:output_extension="org.inkscape.output.svg.inkscape"><metadata
     id="metadata3422"><rdf:RDF><cc:Work
         rdf:about=""><dc:format>image/svg+xml</dc:format><dc:type
           rdf:resource="http://purl.org/dc/dcmitype/StillImage" /></cc:Work></rdf:RDF></metadata><defs
     id="defs3420"><inkscape:perspective
   sodipodi:type="inkscape:persp3d"
   inkscape:vp_x="0 : 10 : 1"
   inkscape:vp_y="0 : 1000 : 0"
   inkscape:vp_z="20 : 10 : 1"
   inkscape:persp3d-origin="10 : 6.6666667 : 1"
   id="perspective3424" />
	
	
</defs><sodipodi:namedview
     inkscape:window-height="674"
     inkscape:window-width="640"
     inkscape:pageshadow="2"
     inkscape:pageopacity="0.0"
     guidetolerance="10.0"
     gridtolerance="10.0"
     objecttolerance="10.0"
     borderopacity="1.0"
     bordercolor="#666666"
     pagecolor="#ffffff"
     id="base"
     showgrid="false"
     inkscape:zoom="24.2"
     inkscape:cx="3.285124"
     inkscape:cy="9.9586777"
     inkscape:window-x="0"
     inkscape:window-y="24"
     inkscape:current-layer="svg3412" /><g
     id="g3939"><path
       d="M 33.233,35.1 L 43.335,45.2 C 44.087,45.95 44.552,46.983 44.552,48.132 C 44.552,50.419 42.697,52.275 40.406,52.275 C 39.261,52.275 38.228,51.812 37.474,51.064 L 27.372,40.961 L 17.272,51.061 C 16.522,51.811 15.485,52.272 14.338,52.272 C 12.054,52.272 10.195,50.418 10.195,48.131 C 10.195,46.985 10.66,45.947 11.407,45.197 L 21.511,35.095 L 11.409,24.995 C 10.662,24.247 10.197,23.21 10.197,22.065 C 10.197,19.776 12.051,17.919 14.343,17.919 C 15.486,17.919 16.523,18.384 17.273,19.133 L 27.372,29.235 L 37.474,19.132 C 38.228,18.383 39.261,17.918 40.408,17.918 C 42.697,17.918 44.554,19.774 44.554,22.063 C 44.554,23.209 44.087,24.243 43.337,24.995 L 33.233,35.1 z"
       id="path3415"
       style="fill:#ffffff;stroke:#646464;stroke-width:3.50000000000000000;stroke-opacity:1" /><circle
       cx="27.371"
       cy="10.849"
       r="8.1219997"
       id="circle3417"
       sodipodi:cx="27.371"
       sodipodi:cy="10.849"
       sodipodi:rx="8.1219997"
       sodipodi:ry="8.1219997"
       style="fill:#ffffff;stroke:#646464;stroke-width:3.50000000000000000;stroke-opacity:1" /></g></svg>