<?xml version="1.0" encoding="UTF-8" standalone="no"?>
<svg
   xmlns:dc="http://purl.org/dc/elements/1.1/"
   xmlns:cc="http://creativecommons.org/ns#"
   xmlns:rdf="http://www.w3.org/1999/02/22-rdf-syntax-ns#"
   xmlns:svg="http://www.w3.org/2000/svg"
   xmlns="http://www.w3.org/2000/svg"
   xmlns:sodipodi="http://sodipodi.sourceforge.net/DTD/sodipodi-0.dtd"
   xmlns:inkscape="http://www.inkscape.org/namespaces/inkscape"
   enable-background="new 0 0 55 55"
   height="20px"
   version="1.1"
   viewBox="0 0 55 55"
   width="20px"
   x="0px"
   xml:space="preserve"
   y="0px"
   id="svg2437"
   sodipodi:version="0.32"
   inkscape:version="0.46"
   sodipodi:docname="show-all-players-grey.svg"
   inkscape:output_extension="org.inkscape.output.svg.inkscape"><metadata
     id="metadata2447"><rdf:RDF><cc:Work
         rdf:about=""><dc:format>image/svg+xml</dc:format><dc:type
           rdf:resource="http://purl.org/dc/dcmitype/StillImage" /></cc:Work></rdf:RDF></metadata><defs
     id="defs2445"><inkscape:perspective
   sodipodi:type="inkscape:persp3d"
   inkscape:vp_x="0 : 10 : 1"
   inkscape:vp_y="0 : 1000 : 0"
   inkscape:vp_z="20 : 10 : 1"
   inkscape:persp3d-origin="10 : 6.6666667 : 1"
   id="perspective2449" />
	
	
</defs><sodipodi:namedview
     inkscape:window-height="834"
     inkscape:window-width="1440"
     inkscape:pageshadow="2"
     inkscape:pageopacity="0.0"
     guidetolerance="10.0"
     gridtolerance="10.0"
     objecttolerance="10.0"
     borderopacity="1.0"
     bordercolor="#666666"
     pagecolor="#ffffff"
     id="base"
     showgrid="false"
     inkscape:zoom="24.2"
     inkscape:cx="-3.429752"
     inkscape:cy="10"
     inkscape:window-x="0"
     inkscape:window-y="24"
     inkscape:current-layer="svg2437" /><g
     id="g3209"><path
       d="M 28.027342,14.970216 L 31.810571,18.931771 C 32.092197,19.225946 32.266341,19.631123 32.266341,20.081799 C 32.266341,20.978836 31.571638,21.706821 30.713652,21.706821 C 30.284846,21.706821 29.897984,21.525216 29.615609,21.231827 L 25.832381,17.269095 L 22.049902,21.23065 C 21.769025,21.524825 21.380665,21.705644 20.95111,21.705644 C 20.095746,21.705644 19.399545,20.978444 19.399545,20.081407 C 19.399545,19.631908 19.573689,19.22477 19.853442,18.930594 L 23.637419,14.968255 L 19.854191,11.006702 C 19.574438,10.713311 19.400294,10.306565 19.400294,9.8574585 C 19.400294,8.9596369 20.094622,8.23126 20.952983,8.23126 C 21.38104,8.23126 21.769399,8.4136484 22.050276,8.707431 L 25.832381,12.669769 L 29.615609,8.7070388 C 29.897984,8.4132562 30.284846,8.2308678 30.714401,8.2308678 C 31.571638,8.2308678 32.26709,8.9588524 32.26709,9.8566735 C 32.26709,10.306173 32.092197,10.711742 31.81132,11.006702 L 28.027342,14.970216 z"
       id="path2440"
       style="fill:#ffffff;stroke:#646464;stroke-width:1.34200001000000002;stroke-miterlimit:4;stroke-dasharray:none;stroke-opacity:1" /><circle
       transform="matrix(0.3745029,0,0,0.3922331,15.581488,1.2028351)"
       cx="27.371"
       cy="10.849"
       r="8.1219997"
       id="circle2442"
       sodipodi:cx="27.371"
       sodipodi:cy="10.849"
       sodipodi:rx="8.1219997"
       sodipodi:ry="8.1219997"
       style="fill:#ffffff;stroke:#646464;stroke-width:3.50148940000000009;stroke-miterlimit:4;stroke-dasharray:none;stroke-opacity:1" /></g><g
     id="g3213"><path
       d="M 44.807661,19.571488 L 48.59089,23.533043 C 48.872516,23.827218 49.04666,24.232394 49.04666,24.68307 C 49.04666,25.580107 48.351957,26.308092 47.493971,26.308092 C 47.065165,26.308092 46.678303,26.126488 46.395928,25.833098 L 42.6127,21.870367 L 38.830221,25.831921 C 38.549344,26.126096 38.160984,26.306915 37.731429,26.306915 C 36.876065,26.306915 36.179864,25.579715 36.179864,24.682678 C 36.179864,24.233179 36.354008,23.826041 36.633761,23.531866 L 40.417738,19.569527 L 36.63451,15.607973 C 36.354757,15.314583 36.180613,14.907837 36.180613,14.45873 C 36.180613,13.560908 36.874941,12.832531 37.733302,12.832531 C 38.161359,12.832531 38.549718,13.01492 38.830595,13.308702 L 42.6127,17.271041 L 46.395928,13.30831 C 46.678303,13.014528 47.065165,12.832139 47.49472,12.832139 C 48.351957,12.832139 49.047409,13.560124 49.047409,14.457945 C 49.047409,14.907445 48.872516,15.313014 48.591639,15.607973 L 44.807661,19.571488 z"
       id="path3231"
       style="fill:#ffffff;stroke:#646464;stroke-width:1.34200001000000002;stroke-miterlimit:4;stroke-dasharray:none;stroke-opacity:1" /><circle
       transform="matrix(0.3745029,0,0,0.3922331,32.361807,5.8041065)"
       cx="27.371"
       cy="10.849"
       r="8.1219997"
       id="circle3233"
       sodipodi:cx="27.371"
       sodipodi:cy="10.849"
       sodipodi:rx="8.1219997"
       sodipodi:ry="8.1219997"
       style="fill:#ffffff;stroke:#646464;stroke-width:3.50148940000000009;stroke-miterlimit:4;stroke-dasharray:none;stroke-opacity:1" /></g><g
     id="g3269"><path
       d="M 18.216752,45.935124 L 21.999981,49.896679 C 22.281607,50.190854 22.455751,50.59603 22.455751,51.046706 C 22.455751,51.943743 21.761048,52.671728 20.903062,52.671728 C 20.474256,52.671728 20.087394,52.490124 19.805019,52.196734 L 16.021791,48.234003 L 12.239312,52.195557 C 11.958435,52.489732 11.570075,52.670551 11.14052,52.670551 C 10.285156,52.670551 9.5889548,51.943351 9.5889548,51.046314 C 9.5889548,50.596815 9.7630988,50.189677 10.042852,49.895502 L 13.826829,45.933163 L 10.043601,41.971609 C 9.7638478,41.678219 9.5897038,41.271473 9.5897038,40.822366 C 9.5897038,39.924544 10.284032,39.196168 11.142393,39.196168 C 11.57045,39.196168 11.958809,39.378556 12.239686,39.672339 L 16.021791,43.634677 L 19.805019,39.671946 C 20.087394,39.378164 20.474256,39.195775 20.903811,39.195775 C 21.761048,39.195775 22.4565,39.92376 22.4565,40.821581 C 22.4565,41.271081 22.281607,41.67665 22.00073,41.971609 L 18.216752,45.935124 z"
       id="path3237"
       style="fill:#ffffff;stroke:#646464;stroke-width:1.34200001000000002;stroke-miterlimit:4;stroke-dasharray:none;stroke-opacity:1" /><circle
       transform="matrix(0.3745029,0,0,0.3922331,5.7708974,32.167743)"
       cx="27.371"
       cy="10.849"
       r="8.1219997"
       id="circle3239"
       sodipodi:cx="27.371"
       sodipodi:cy="10.849"
       sodipodi:rx="8.1219997"
       sodipodi:ry="8.1219997"
       style="fill:#ffffff;stroke:#646464;stroke-width:3.50148940000000009;stroke-miterlimit:4;stroke-dasharray:none;stroke-opacity:1" /></g><g
     id="g3241"><path
       d="M 39.012207,38.094216 L 42.795436,42.055771 C 43.077062,42.349946 43.251206,42.755122 43.251206,43.205798 C 43.251206,44.102835 42.556503,44.83082 41.698517,44.83082 C 41.269711,44.83082 40.882849,44.649216 40.600474,44.355826 L 36.817246,40.393095 L 33.034767,44.354649 C 32.75389,44.648824 32.36553,44.829643 31.935975,44.829643 C 31.080611,44.829643 30.38441,44.102443 30.38441,43.205406 C 30.38441,42.755907 30.558554,42.348769 30.838307,42.054594 L 34.622284,38.092255 L 30.839056,34.130701 C 30.559303,33.837311 30.385159,33.430565 30.385159,32.981458 C 30.385159,32.083636 31.079487,31.35526 31.937848,31.35526 C 32.365905,31.35526 32.754264,31.537648 33.035141,31.831431 L 36.817246,35.793769 L 40.600474,31.831038 C 40.882849,31.537256 41.269711,31.354867 41.699266,31.354867 C 42.556503,31.354867 43.251955,32.082852 43.251955,32.980673 C 43.251955,33.430173 43.077062,33.835742 42.796185,34.130701 L 39.012207,38.094216 z"
       id="path3243"
       style="fill:#ffffff;stroke:#646464;stroke-width:1.34200001000000002;stroke-miterlimit:4;stroke-dasharray:none;stroke-opacity:1" /><circle
       transform="matrix(0.3745029,0,0,0.3922331,26.566353,24.326835)"
       cx="27.371"
       cy="10.849"
       r="8.1219997"
       id="circle3245"
       sodipodi:cx="27.371"
       sodipodi:cy="10.849"
       sodipodi:rx="8.1219997"
       sodipodi:ry="8.1219997"
       style="fill:#ffffff;stroke:#646464;stroke-width:3.50148940000000009;stroke-miterlimit:4;stroke-dasharray:none;stroke-opacity:1" /></g><g
     id="g3205"><path
       d="M 12.534933,21.957851 L 16.318162,25.919406 C 16.599788,26.213581 16.773932,26.618757 16.773932,27.069433 C 16.773932,27.96647 16.079229,28.694455 15.221243,28.694455 C 14.792437,28.694455 14.405575,28.512851 14.1232,28.219461 L 10.339972,24.25673 L 6.5574934,28.218284 C 6.2766164,28.512459 5.8882564,28.693278 5.4587014,28.693278 C 4.6033374,28.693278 3.9071364,27.966078 3.9071364,27.069041 C 3.9071364,26.619542 4.0812804,26.212404 4.3610334,25.918229 L 8.1450104,21.95589 L 4.3617824,17.994336 C 4.0820294,17.700946 3.9078854,17.2942 3.9078854,16.845093 C 3.9078854,15.947272 4.6022134,15.218895 5.4605744,15.218895 C 5.8886314,15.218895 6.2769904,15.401283 6.5578674,15.695066 L 10.339972,19.657404 L 14.1232,15.694674 C 14.405575,15.400891 14.792437,15.218503 15.221992,15.218503 C 16.079229,15.218503 16.774681,15.946487 16.774681,16.844308 C 16.774681,17.293808 16.599788,17.699377 16.318911,17.994336 L 12.534933,21.957851 z"
       id="path3249"
       style="fill:#ffffff;stroke:#646464;stroke-width:1.34200001000000002;stroke-miterlimit:4;stroke-dasharray:none;stroke-opacity:1" /><circle
       transform="matrix(0.3745029,0,0,0.3922331,8.9079e-2,8.19047)"
       cx="27.371"
       cy="10.849"
       r="8.1219997"
       id="circle3251"
       sodipodi:cx="27.371"
       sodipodi:cy="10.849"
       sodipodi:rx="8.1219997"
       sodipodi:ry="8.1219997"
       style="fill:#ffffff;stroke:#646464;stroke-width:3.50148940000000009;stroke-miterlimit:4;stroke-dasharray:none;stroke-opacity:1" /></g></svg>