<?xml version="1.0" encoding="UTF-8" standalone="no"?>
<!-- Created with Inkscape (http://www.inkscape.org/) -->
<svg
   xmlns:dc="http://purl.org/dc/elements/1.1/"
   xmlns:cc="http://creativecommons.org/ns#"
   xmlns:rdf="http://www.w3.org/1999/02/22-rdf-syntax-ns#"
   xmlns:svg="http://www.w3.org/2000/svg"
   xmlns="http://www.w3.org/2000/svg"
   xmlns:sodipodi="http://sodipodi.sourceforge.net/DTD/sodipodi-0.dtd"
   xmlns:inkscape="http://www.inkscape.org/namespaces/inkscape"
   version="1.0"
   width="55"
   height="54.695999"
   viewBox="0 0 55 54.696"
   id="svg6022"
   xml:space="preserve"
   sodipodi:version="0.32"
   inkscape:version="0.46"
   sodipodi:docname="toggle-crosslines.svg"
   inkscape:output_extension="org.inkscape.output.svg.inkscape"><metadata
     id="metadata2407"><rdf:RDF><cc:Work
         rdf:about=""><dc:format>image/svg+xml</dc:format><dc:type
           rdf:resource="http://purl.org/dc/dcmitype/StillImage" /></cc:Work></rdf:RDF></metadata><sodipodi:namedview
     inkscape:window-height="796"
     inkscape:window-width="1104"
     inkscape:pageshadow="2"
     inkscape:pageopacity="1"
     guidetolerance="10.0"
     gridtolerance="10.0"
     objecttolerance="10.0"
     borderopacity="1.0"
     bordercolor="#666666"
     pagecolor="#000000"
     id="base"
     showgrid="false"
     inkscape:zoom="8.4466873"
     inkscape:cx="26.672789"
     inkscape:cy="36.929714"
     inkscape:window-x="0"
     inkscape:window-y="24"
     inkscape:current-layer="svg6022" /><defs
     id="defs6036"><inkscape:perspective
   sodipodi:type="inkscape:persp3d"
   inkscape:vp_x="0 : 27.348 : 1"
   inkscape:vp_y="0 : 1000 : 0"
   inkscape:vp_z="55 : 27.348 : 1"
   inkscape:persp3d-origin="27.5 : 18.232 : 1"
   id="perspective2409" /><marker
   refX="0"
   refY="0"
   orient="auto"
   id="Arrow2Send"
   style="overflow:visible"><path
     d="M 8.7185878,4.0337352 L -2.2072895,0.016013256 L 8.7185884,-4.0017078 C 6.97309,-1.6296469 6.9831476,1.6157441 8.7185878,4.0337352 z"
     transform="matrix(-0.3,0,0,-0.3,0.69,0)"
     id="path6877"
     style="font-size:12px;fill-rule:evenodd;stroke-width:0.625;stroke-linejoin:round" /></marker><marker
   refX="0"
   refY="0"
   orient="auto"
   id="Arrow2Mend"
   style="overflow:visible"><path
     d="M 8.7185878,4.0337352 L -2.2072895,0.016013256 L 8.7185884,-4.0017078 C 6.97309,-1.6296469 6.9831476,1.6157441 8.7185878,4.0337352 z"
     transform="scale(-0.6,-0.6)"
     id="path6871"
     style="font-size:12px;fill-rule:evenodd;stroke-width:0.625;stroke-linejoin:round" /></marker><marker
   refX="0"
   refY="0"
   orient="auto"
   id="Arrow1Send"
   style="overflow:visible"><path
     d="M 0,0 L 5,-5 L -12.5,0 L 5,5 L 0,0 z"
     transform="matrix(-0.2,0,0,-0.2,-1.2,0)"
     id="path6859"
     style="fill-rule:evenodd;stroke:#000000;stroke-width:1pt;marker-start:none" /></marker><marker
   refX="0"
   refY="0"
   orient="auto"
   id="Arrow2Lend"
   style="overflow:visible"><path
     d="M 8.7185878,4.0337352 L -2.2072895,0.016013256 L 8.7185884,-4.0017078 C 6.97309,-1.6296469 6.9831476,1.6157441 8.7185878,4.0337352 z"
     transform="matrix(-1.1,0,0,-1.1,-1.1,0)"
     id="path6865"
     style="font-size:12px;fill-rule:evenodd;stroke-width:0.625;stroke-linejoin:round" /></marker><marker
   refX="0"
   refY="0"
   orient="auto"
   id="Arrow1Mend"
   style="overflow:visible"><path
     d="M 0,0 L 5,-5 L -12.5,0 L 5,5 L 0,0 z"
     transform="matrix(-0.4,0,0,-0.4,-4,0)"
     id="path6853"
     style="fill-rule:evenodd;stroke:#000000;stroke-width:1pt;marker-start:none" /></marker><marker
   refX="0"
   refY="0"
   orient="auto"
   id="Arrow1Lend"
   style="overflow:visible"><path
     d="M 0,0 L 5,-5 L -12.5,0 L 5,5 L 0,0 z"
     transform="matrix(-0.8,0,0,-0.8,-10,0)"
     id="path6847"
     style="fill-rule:evenodd;stroke:#000000;stroke-width:1pt;marker-start:none" /></marker><marker
   refX="0"
   refY="0"
   orient="auto"
   id="Arrow1Lstart"
   style="overflow:visible"><path
     d="M 0,0 L 5,-5 L -12.5,0 L 5,5 L 0,0 z"
     transform="matrix(0.8,0,0,0.8,10,0)"
     id="path6844"
     style="fill-rule:evenodd;stroke:#000000;stroke-width:1pt;marker-start:none" /></marker>
	

		
		
		
		
	<marker
   refX="0"
   refY="0"
   orient="auto"
   id="Arrow1Lendn"
   style="overflow:visible"><path
     d="M 0,0 L 5,-5 L -12.5,0 L 5,5 L 0,0 z"
     transform="matrix(-0.8,0,0,-0.8,-10,0)"
     id="path10748"
     style="fill:#ffffff;fill-rule:evenodd;stroke:#ffffff;stroke-width:1pt;marker-start:none" /></marker><marker
   refX="0"
   refY="0"
   orient="auto"
   id="Arrow2LendM"
   style="overflow:visible"><path
     d="M 8.7185878,4.0337352 L -2.2072895,0.016013256 L 8.7185884,-4.0017078 C 6.97309,-1.6296469 6.9831476,1.6157441 8.7185878,4.0337352 z"
     transform="matrix(-1.1,0,0,-1.1,-1.1,0)"
     id="path11860"
     style="font-size:12px;fill:#ffffff;fill-rule:evenodd;stroke:#ffffff;stroke-width:0.625;stroke-linejoin:round" /></marker><marker
   refX="0"
   refY="0"
   orient="auto"
   id="Arrow2Sendb"
   style="overflow:visible"><path
     d="M 8.7185878,4.0337352 L -2.2072895,0.016013256 L 8.7185884,-4.0017078 C 6.97309,-1.6296469 6.9831476,1.6157441 8.7185878,4.0337352 z"
     transform="matrix(-0.3,0,0,-0.3,0.69,0)"
     id="path13586"
     style="font-size:12px;fill:#ffffff;fill-rule:evenodd;stroke:#ffffff;stroke-width:0.625;stroke-linejoin:round" /></marker></defs><line
     style="fill:none;stroke:#ffffff;stroke-width:2.07929707;marker-start:none;marker-end:none;stroke-miterlimit:4;stroke-dasharray:none;stroke-opacity:1"
     id="line6029"
     y2="0.1755064"
     y1="54.971493"
     x2="27.647772"
     x1="27.71826" /><line
     style="fill:#ffffff;stroke:#ffffff;stroke-width:2.07929706999999997;marker-start:none;marker-end:none;stroke-miterlimit:4;stroke-dasharray:none;stroke-opacity:1"
     id="line3810"
     y2="27.158121"
     y1="27.301102"
     x2="55.101089"
     x1="0.30524474" /><text
     xml:space="preserve"
     style="font-size:40px;font-style:normal;font-variant:normal;font-weight:normal;font-stretch:normal;fill:#000000;fill-opacity:1;stroke:none;stroke-width:1px;stroke-linecap:butt;stroke-linejoin:miter;stroke-opacity:1;font-family:cmsy10;-inkscape-font-specification:cmsy10"
     x="46.645504"
     y="36.345612"
     id="text3812"><tspan
       sodipodi:role="line"
       id="tspan3814"
       x="46.645504"
       y="36.345612"
       style="font-size:10px;fill:#ffffff">X</tspan></text>
<text
     xml:space="preserve"
     style="font-size:40px;font-style:normal;font-variant:normal;font-weight:normal;font-stretch:normal;fill:#000000;fill-opacity:1;stroke:none;stroke-width:1px;stroke-linecap:butt;stroke-linejoin:miter;stroke-opacity:1;font-family:cmsy10;-inkscape-font-specification:cmsy10"
     x="29.834181"
     y="3.07813"
     id="text3816"><tspan
       sodipodi:role="line"
       id="tspan3818"></tspan></text>
<text
     xml:space="preserve"
     style="font-size:40px;font-style:normal;font-variant:normal;font-weight:normal;font-stretch:normal;fill:#000000;fill-opacity:1;stroke:none;stroke-width:1px;stroke-linecap:butt;stroke-linejoin:miter;stroke-opacity:1;font-family:cmsy10;-inkscape-font-specification:cmsy10"
     x="18.085636"
     y="7.6770263"
     id="text3820"><tspan
       sodipodi:role="line"
       id="tspan3822"
       x="18.085636"
       y="7.6770263"
       style="font-size:10px;fill:#ffffff">Y</tspan></text>
</svg>