<?xml version="1.0" ?>

<!DOCTYPE svg	[
		<!ENTITY stroke_color "#010101">
		<!ENTITY fill_color "#FFFFFF">
		]
>

<svg
 enable-background="new 0 0 55 55"
 height="55px"
 version="1.1"
 viewBox="0 0 55 55"
 width="55px"
 x="0px"
 xml:space="preserve"
 xmlns="http://www.w3.org/2000/svg"
 xmlns:xlink="http://www.w3.org/1999/xlink"
 y="0px"
>

<g display="block" id="activity-geospace">

    <path
       d="M 36.68659,17.617844 C 35.068954,19.165766 26.077205,27.691411 26.024842,27.646896 23.116814,25.174714 22.366515,24.43086 16.138771,18.003178 L 8.5063559,9.496822 C 7.6417814,9.1281189 6.735952,9.1713614 5.881606,9.7398692 5.039524,10.564928 4.7129325,11.307694 4.9523305,12.293432 c 2.3814507,3.509133 5.0291617,6.82334 8.0402545,10.079449 l 8.972457,8.739407 -10.487288,10.297934 c -1.12417,1.19159 -0.915199,2.295416 0.131092,3.626854 1.041964,0.926683 2.740296,1.281653 4.063824,3e-6 L 26.567797,34.549791 c 2.942267,1.92267 5.3079,3.260533 8.739406,4.71928 2.835452,0.78851 5.554379,1.208824 8.331568,1.106991 2.343071,-0.555601 4.102687,-1.035725 5.884534,-2.272245 0.661287,-0.980756 0.72584,-2.019774 0.407839,-3.029661 -0.519899,-0.713852 -0.902346,-1.476436 -2.680085,-1.398306 -6.972104,3.010241 -10.798023,-0.4842 -16.197034,-3.554025 3.670551,-3.4375 6.093265,-5.775491 11.011653,-10.3125 0.899376,-1.298761 0.04445,-2.406741 -0.684587,-3.189883 -0.801393,-0.812351 -2.282142,-0.902481 -2.947467,-0.416101 -0.675045,0.493486 -1.861198,1.501079 -1.868271,1.503757 m -5.312277,-4.183021 c 0,2.38088 -1.993159,4.310964 -4.451845,4.310964 -2.458685,0 -4.451844,-1.930084 -4.451844,-4.310964 0,-2.380879 1.993159,-4.3109627 4.451844,-4.3109627 2.458686,0 4.451845,1.9300837 4.451845,4.3109627 z"
	display="inline"
	fill="&fill_color;"
	stroke="&stroke_color;"
	stroke-width="3.0"
     />

</g>

</svg>
