<?xml version="1.0" encoding="UTF-8"?>
<!DOCTYPE svg PUBLIC "-//W3C//DTD SVG 1.1//EN" "http://www.w3.org/Graphics/SVG/1.1/DTD/svg11.dtd" [
    <!ENTITY stroke_color "#666666">
    <!ENTITY fill_color "#FFFFFF">
]>
<svg version="1.1" id="feld" xmlns="http://www.w3.org/2000/svg" xmlns:xlink="http://www.w3.org/1999/xlink" x="0px" y="0px"
	 width="55px" height="55px" viewBox="-5 -5 60 60" enable-background="new 5 5 45 45" xml:space="preserve">
		<path fill="&fill_color;" stroke="&stroke_color;" d="M8.602,18.019l4.458,1.178c0.916,0.242,1.854-0.306,2.097-1.222
			c0.243-0.918-0.306-1.855-1.222-2.098L9.477,14.7c-0.916-0.241-1.854,0.306-2.097,1.222C7.138,16.837,7.686,17.778,8.602,18.019z
			 M8.812,9.739c0.531,0.143,1.078-0.176,1.22-0.71c0.138-0.531-0.179-1.077-0.712-1.218L6.731,7.128
			c-0.533-0.14-1.08,0.178-1.22,0.711c-0.141,0.532,0.177,1.076,0.71,1.217L8.812,9.739z M12.604,22.392l3.375,0.894
			c0.694,0.183,1.404-0.231,1.589-0.925c0.183-0.695-0.23-1.405-0.925-1.59l-3.375-0.891c-0.694-0.184-1.406,0.232-1.589,0.925
			C11.496,21.5,11.91,22.212,12.604,22.392z M18.963,16.564l-0.893,3.375c-0.181,0.692,0.231,1.404,0.927,1.587
			c0.693,0.185,1.405-0.23,1.588-0.924l0.891-3.377c0.183-0.694-0.231-1.404-0.925-1.587C19.856,15.455,19.146,15.87,18.963,16.564z
			 M13.287,12.162c0.795,0.209,1.611-0.266,1.821-1.061l1.021-3.871c0.209-0.795-0.265-1.611-1.061-1.82
			c-0.796-0.21-1.612,0.266-1.822,1.062l-1.02,3.867C12.017,11.136,12.49,11.95,13.287,12.162z M6.547,12.812l3.869,1.021
			c0.794,0.21,1.61-0.267,1.82-1.061c0.212-0.796-0.264-1.612-1.061-1.822L7.307,9.93c-0.795-0.21-1.611,0.266-1.821,1.061
			C5.277,11.786,5.75,12.603,6.547,12.812z M18.715,22.716c-0.493,0.286-0.66,0.915-0.374,1.408l1.828,3.136
			c0.287,0.49,0.916,0.658,1.409,0.372c0.491-0.287,0.658-0.919,0.371-1.409l-1.826-3.136C19.836,22.595,19.206,22.43,18.715,22.716
			z M16.367,17.271c0.916,0.242,1.855-0.307,2.098-1.223l1.175-4.458c0.243-0.915-0.304-1.854-1.22-2.097
			c-0.917-0.242-1.857,0.304-2.099,1.222l-1.175,4.459C14.903,16.089,15.45,17.028,16.367,17.271z M4.544,6.174l2.59,0.685
			C7.667,6.999,8.211,6.68,8.352,6.149c0.141-0.533-0.177-1.08-0.71-1.219l-2.59-0.685c-0.531-0.141-1.078,0.177-1.218,0.71
			C3.693,5.489,4.011,6.034,4.544,6.174z M6.537,3.207c0.196,0.337,0.627,0.45,0.964,0.254c0.336-0.195,0.45-0.627,0.254-0.964
			L6.504,0.35c-0.196-0.337-0.627-0.45-0.964-0.254S5.09,0.723,5.287,1.06L6.537,3.207z M11.101,4.585l-0.683,2.588
			c-0.142,0.532,0.175,1.079,0.708,1.218c0.533,0.142,1.08-0.175,1.22-0.708l0.684-2.59c0.14-0.531-0.177-1.078-0.71-1.22
			C11.786,3.731,11.24,4.052,11.101,4.585z M9.448,5.51c0.533,0.142,1.079-0.177,1.218-0.709l0.686-2.591
			c0.14-0.533-0.177-1.077-0.712-1.218c-0.531-0.141-1.076,0.178-1.218,0.71l-0.683,2.59C8.598,4.823,8.916,5.369,9.448,5.51z
			 M36.265,24.787c-0.616-0.467-1.493-0.348-1.962,0.266c-0.468,0.615-0.349,1.493,0.265,1.963l4.114,3.128
			c0.616,0.47,1.493,0.351,1.963-0.265c0.467-0.616,0.348-1.493-0.268-1.961L36.265,24.787z M44.123,12.437l-3.953-3.33
			c-0.59-0.498-1.474-0.423-1.974,0.17c-0.497,0.59-0.421,1.473,0.169,1.97l3.952,3.332c0.591,0.499,1.474,0.424,1.972-0.167
			C44.789,13.818,44.713,12.936,44.123,12.437z M39.089,13.975c-0.683-0.476-1.622-0.308-2.098,0.375L17.309,42.632
			c-0.478,0.681-0.308,1.622,0.375,2.097c0.683,0.476,1.622,0.308,2.099-0.377l19.684-28.278
			C39.941,15.389,39.774,14.449,39.089,13.975z M11.209,29.431C5.423,25.861,0.38,20,0.38,20s3.298,8.016,7.546,13.648
			c3.706,4.916,8.437,7.544,8.437,7.544l5.567-7.902C21.93,33.29,16.127,32.461,11.209,29.431z"/>
</svg>