<?xml version="1.0" encoding="UTF-8"?>
<!DOCTYPE svg PUBLIC "-//W3C//DTD SVG 1.1//EN" "http://www.w3.org/Graphics/SVG/1.1/DTD/svg11.dtd" [
    <!ENTITY stroke_color "#666666">
    <!ENTITY fill_color "#FFFFFF">
]>
<svg version="1.1" id="tier" xmlns="http://www.w3.org/2000/svg" xmlns:xlink="http://www.w3.org/1999/xlink" x="0px" y="0px"
	 width="55px" height="55px" viewBox="-5 -5 60 60" enable-background="new 5 5 45 45" xml:space="preserve">
		<path fill="&fill_color;" stroke="&stroke_color;" d="M0.689,29.56c-1.053,1.188-0.975,2.804,0.76,4.34
			c1.735,1.538,3.997,1.82,5.047,0.634c1.053-1.188,0.499-3.397-1.238-4.935C3.523,28.062,1.74,28.374,0.689,29.56z M12.792,25.322
			c1.58-0.303,2.466-2.597,1.983-5.127c-0.48-2.532-2.27-2.791-3.85-2.489c-1.576,0.302-2.348,1.047-1.864,3.578
			C9.544,23.814,11.215,25.623,12.792,25.322z M7.553,22.062c-1.508-2.09-3.311-1.948-4.613-1.007
			c-1.303,0.938-1.613,2.323-0.104,4.411c1.51,2.09,3.788,3.02,5.09,2.08C9.228,26.605,9.062,24.147,7.553,22.062z M11.436,28.866
			c-3.438,1.542-4.125,9.585-1.487,10.453c2.64,0.87,4.522-0.067,6.129-1.244s4.695,0.571,5.846-3.314
			C22.67,32.242,14.723,27.391,11.436,28.866z M19.23,21.998c-1.583,0.1-2.987,1.341-2.84,3.656c0.146,2.314,1.547,4.109,3.13,4.009
			c1.584-0.1,2.749-2.057,2.604-4.372C21.977,22.979,20.813,21.898,19.23,21.998z M44.586,14.867
			c-0.553-0.845-1.458-1.233-2.017-0.867l-7.809,5.12l4.101-11.051c0.39-1.05-0.145-2.214-1.194-2.604
			c-1.049-0.389-2.213,0.146-2.604,1.194l-3.961,10.673l-2.375-7.203c-0.211-0.635-1.159-0.895-2.119-0.577
			c-0.961,0.316-1.57,1.089-1.361,1.725l3.708,11.251c0.027,0.08,0.095,0.135,0.144,0.201l-0.929,2.499
			c-0.39,1.049,0.146,2.214,1.194,2.604c1.049,0.389,2.214-0.146,2.603-1.193l1.243-3.345c0.495,0.392,1.062,0.525,1.458,0.266
			l9.907-6.495C45.139,16.697,45.141,15.714,44.586,14.867z"/>
</svg>