<?xml version="1.0" encoding="UTF-8"?>
<!DOCTYPE svg PUBLIC "-//W3C//DTD SVG 1.1//EN" "http://www.w3.org/Graphics/SVG/1.1/DTD/svg11.dtd" [
    <!ENTITY stroke_color "#666666">
    <!ENTITY fill_color "#FFFFFF">
]>
<svg version="1.1" id="haus" xmlns="http://www.w3.org/2000/svg" xmlns:xlink="http://www.w3.org/1999/xlink" x="0px" y="0px"
	 width="55px" height="55px" viewBox="-5 -5 60 60" enable-background="new 5 5 45 45" xml:space="preserve">
		<path fill="&fill_color;" stroke="&stroke_color;" d="M44.286,18.317c0,0-1.104-1.107-2.703-2.712V5.176h-5.278v5.137
			c-3.721-3.729-7.359-7.379-7.451-7.471c-0.188-0.188-0.589-0.281-0.88,0.01c-0.108,0.111-2.388,2.379-5.166,5.146
			c3.672,3.685,14.16,14.199,14.16,14.199s0.678,0.683,0.714,1.237v13.22h6.7c0.341,0,0.619-0.277,0.619-0.619V19.555
			C44.964,19.001,44.286,18.317,44.286,18.317z M17.034,8.522c-0.19-0.188-0.592-0.281-0.88,0.009
			C15.862,8.821,0.62,23.999,0.62,23.999S0,24.641,0,25.234v16.48c0,0.342,0.276,0.618,0.62,0.618h31.942
			c0.339,0,0.618-0.276,0.618-0.618v-16.48c-0.036-0.553-0.715-1.235-0.715-1.235S17.221,8.712,17.034,8.522z M21.483,33.426H10.55
			V22.492h10.933V33.426z"/>
</svg>