<?xml version="1.0" encoding="UTF-8"?>
<!DOCTYPE svg PUBLIC "-//W3C//DTD SVG 1.1//EN" "http://www.w3.org/Graphics/SVG/1.1/DTD/svg11.dtd" [
    <!ENTITY stroke_color "#666666">
    <!ENTITY fill_color "#FFFFFF">
]>
<svg version="1.1" id="verkehr" xmlns="http://www.w3.org/2000/svg" xmlns:xlink="http://www.w3.org/1999/xlink" x="0px" y="0px"
	 width="55px" height="55px" viewBox="-5 -5 60 60" enable-background="new 5 5 45 45" xml:space="preserve">
		<path fill="&fill_color;" stroke="&stroke_color;" d="M30.394,22.788l-2.598-8.249c-0.585-1.665-2.625-2.558-3.541-2.558H7.399
			c-0.916,0-2.954,0.893-3.539,2.558l-2.598,8.249c0,0-0.721,0.583-0.952,1.094c-0.231,0.506-0.49,0.951-0.14,4.256
			C0.5,31.223,1.31,32.29,2.182,32.656l0.687,0.314l0.245,2.686c0.078,0.851,0.34,1.101,1.306,1.101h2.167
			c0.966,0,1.192-0.25,1.143-1.101l-0.155-2.686h16.507l-0.155,2.686c-0.05,0.851,0.178,1.101,1.143,1.101h2.166
			c0.966,0,1.23-0.25,1.308-1.101l0.243-2.686l0.688-0.314c0.872-0.366,1.682-1.434,2.011-4.519c0.35-3.305,0.089-3.75-0.141-4.256
			C31.115,23.371,30.394,22.788,30.394,22.788z M6.329,29.643c-1.091,0-2.041-0.798-2.12-1.788
			c-0.078-1.002,0.766-1.831,1.883-1.831c1.119,0,2.07,0.829,2.122,1.831C8.266,28.845,7.417,29.643,6.329,29.643z M25.402,29.643
			c-1.089,0-1.936-0.798-1.886-1.788c0.055-1.002,1.008-1.831,2.125-1.831c1.117,0,1.96,0.829,1.881,1.831
			C27.444,28.845,26.495,29.643,25.402,29.643z M28.157,22.788c0,0-6.54-1.562-12.882-1.562c-5.974,0-11.774,1.562-11.774,1.562
			s-0.585,0.051-0.454-0.541c0.109-0.503,1.89-5.651,2.255-7.127c0.157-0.514,1.167-1.706,2.638-1.616h15.776
			c1.473-0.09,2.482,1.103,2.638,1.616c0.369,1.476,2.148,6.624,2.257,7.127C28.74,22.839,28.157,22.788,28.157,22.788z
			 M43.02,33.688l-2.945-0.79l3.02,10.931l0.111,0.02C43.901,42.933,44.5,41.94,45,40.892L43.02,33.688z M37.586,13.902
			l-3.043-1.032l4.433,16.05l2.966,0.839L37.586,13.902z M34.429,2.405L31.304,1.15l2.12,7.671l3.064,1.083L34.429,2.405z"/>
</svg>