<?xml version="1.0" encoding="UTF-8"?>
<!DOCTYPE svg PUBLIC "-//W3C//DTD SVG 1.1//EN" "http://www.w3.org/Graphics/SVG/1.1/DTD/svg11.dtd" [
    <!ENTITY stroke_color "#666666">
    <!ENTITY fill_color "#FFFFFF">
]>
<svg version="1.1" id="baum" xmlns="http://www.w3.org/2000/svg" xmlns:xlink="http://www.w3.org/1999/xlink" x="0px" y="0px"
	 width="55px" height="55px" viewBox="-5 -5 60 60" enable-background="new 5 5 45 45" xml:space="preserve">
		<path fill="&fill_color;" stroke="&stroke_color;" d="M1.2,17.675c0,0,0.245,0.621,0.593,0.89c0.32,0.247,0.742,0.142,0.742,0.142
			l-1.297,1.26l1.871,1.411c0,0,0.2,0.467,0.096,0.782c-0.105,0.314-0.516,0.477-0.516,0.477l0.344,0.533l-0.306,0.422
			c0,0-0.534,0.649-0.114,1.145c0.077-0.037,1.184-0.917,1.184-0.917l0.077,1.071l-0.763,0.611l2.175-0.306L4.979,26.07l0.917,0.116
			l-0.038,0.42c0,0,1.807-1.74,3.402-2.313c0.915-0.329,2.017,0.365,2.017,0.365s3.801-6.737,7.243-3.302
			c5.579,5.57,2.528,14.501,2.528,14.501h2.941c0,0-2.059-9.783,0.794-12.413c3.964-3.658,11.306,1.037,11.306,1.037
			s-0.075-1.037,1.11-0.926c1.377,0.134,4.045,1.424,4.045,1.424l-0.192-1.146l2.862-0.23c0,0,1.031-3.893,0.342-3.318
			c-0.686,0.571-1.257-0.917-1.257-0.917s0.686-0.573,0.114-0.688c-0.572-0.115,0.686-0.802,0.686-0.802s-1.832-1.028-1.946-1.487
			s-0.114-2.979,0.572-3.438c0.688-0.457-0.572,0.229-1.029,0.114c-0.459-0.114-0.917-1.945-0.917-1.945l-1.488-0.113l1.26-0.916
			c0,0-2.061,0-0.917-1.606c0.23-0.229-2.061-0.799-2.061-0.799l0.458-1.49l-1.489,0.459l-0.458-1.603l-1.373,0.915l0.687-1.603
			c0,0-1.489-0.344-1.832,0.688c0-0.116-0.458-1.262-0.458-1.262L31.891,4.48l0.458-1.832L30.63,3.335l0.04-1.082l-1.452,1.184
			c0,0,0.454-0.649,0.387-1.175c-0.043-0.357-0.615-0.66-0.615-0.66L28.15,2.52L27.272,2.33c0,0-0.169-1.149-0.389-1.193
			c-0.254-0.052-0.566,1.002-0.566,1.002l-0.534-0.151l-0.306-1.796l-0.688,1.182l-2.403-1.374l0.229,1.374L22.08,0.916
			l-1.374,1.261c0,0,0.068-0.965-0.285-1.319c-0.354-0.354-1.127-0.094-1.127-0.094l-1.145,1.642l-0.953-1.566l-0.191,1.72
			l-1.185-0.802L15.63,2.559L13.989,2.75l-0.574,1.563c0,0-0.449-0.348-0.584-0.998c-0.077-0.38,0.127-1.214,0.127-1.214
			s-0.541,0.399-0.73,1.024c-0.1,0.335,0.013,0.978,0.119,1.112c0.305,0.381,0.077,1.144-0.495,0.765
			c-0.574-0.384-1.643-1.032-1.643-1.032l0.191,1.641L8.11,6.528L9.56,7.253L8.911,8.552L8.222,7.483L6.925,9.238L4.787,9.544
			c0,0,0.992,0.507,1.348,1.197c0.26,0.504-0.087,1.246-0.087,1.246l-1.755-0.307L4.75,12.56l-1.641-0.268l0.841,1.793L2.726,14.01
			l0.231,0.915l-1.031,0.383l1.335,1.108L2.269,16.49c0,0,1.755,0.801,1.146,0.918C2.804,17.522,1.2,17.675,1.2,17.675z
			 M22.93,23.664c-0.381,0.495-0.696,1.071-0.696,1.071s-0.341-0.721-0.743-1.41c-0.28-0.476-0.672-0.995-0.672-0.995
			s0.256-0.969,0.365-1.707c0.12-0.821,0.17-1.728,0.17-1.728s1.489-1.83,1.757-1.91c0.268-0.075,0.458,0.345,0.611,0.611
			c0.151,0.27,0.151,5.001,0.151,5.001S23.367,23.096,22.93,23.664z M24.294,16.796l1.375,0.189c0,0,0.029,0.53-0.243,0.924
			c-0.379,0.536-1.094,0.986-1.094,0.986L24.294,16.796z M25.528,21.634c-0.562,0.247-1.156,0.658-1.156,0.658l0.038-2.557
			c0,0,1.813-2.627,2.495-2.072c0.986,0.801-0.549,3.752-0.549,3.752S25.931,21.455,25.528,21.634z M29.142,21.377l-0.724-0.076
			l0.343-1.335l0.649,1.029L29.142,21.377z M29.599,18.706l0.992,0.991l-0.953,0.84c0,0-0.763-1.068-0.877-1.26
			C28.645,19.087,29.599,18.706,29.599,18.706z M27.69,17.825l0.537-0.303l0.877,0.418l-0.343,0.688H27.69V17.825z M27.769,19.392
			c0.418-0.151,0.761,0.038,0.761,0.038l-0.535,1.908l-1.144-0.037C26.852,21.301,27.347,19.546,27.769,19.392z M26.89,15.88
			l0.648,0.726c0,0-0.283,0.316-0.562,0.363c-0.274,0.049-0.544-0.173-0.544-0.173L26.89,15.88z M25.438,15.04l0.994,0.688
			l-0.343,0.915l-1.565-0.306L25.438,15.04z M23.492,14.125l0.955,0.763c0,0-0.094,1.542-0.591,1.761
			c-0.549,0.24-1.509-0.844-1.509-0.844L23.492,14.125z M22.5,16.874l-1.184,1.371l-0.497-2.326L22.5,16.874z M19.791,13.742
			l1.335,0.077l0.803,1.869c0,0-0.73,0-1.352-0.312c-0.639-0.318-1.168-0.947-1.168-0.947l0.648-0.305L19.791,13.742z
			 M19.636,15.688c0,0,0.992,1.183,1.121,2.484c0.171,1.714-0.509,3.662-0.509,3.662s-1.816-1.809-2.63-3.246
			c-0.68-1.193-0.385-2.061-0.385-2.061L19.636,15.688z M17.956,14.391l1.223,0.803l-1.794,0.801l-0.381-0.723L17.956,14.391z
			 M16.47,15.65c0,0,0.258,0.81,0.027,0.99c-0.31,0.248-1.135-0.112-1.135-0.112l-0.038-0.953L16.47,15.65z M16.384,17.685
			c0.634,0.643,1.21,1.631,1.229,1.745c0.022,0.129-0.98,0.365-1.916,0.242c-0.754-0.095-1.482-0.546-1.482-0.546
			s0.879-1.949,0.879-2.216C15.095,16.78,15.769,17.062,16.384,17.685z M14.178,17.177c0.269,0.384-0.457,1.719-0.457,1.719
			l-0.877-1.029C12.843,17.866,13.912,16.796,14.178,17.177z M12.88,19.126l1.872,0.609l-1.603,1.146l-1.337-0.344l-0.075-1.297
			L12.88,19.126z M0.412,38.081c-0.033-0.048-0.077-0.09-0.109-0.139C0.26,37.996,0.314,38.042,0.412,38.081z M0.412,38.081
			c3.018,4.187,7.927,6.918,13.479,6.918h16.61c6.022,0,11.293-3.204,14.207-7.999C45.218,36.715,2.807,39.092,0.412,38.081z"/>
</svg>