<?xml version="1.0" encoding="UTF-8"?>
<!DOCTYPE svg PUBLIC "-//W3C//DTD SVG 1.1//EN" "http://www.w3.org/Graphics/SVG/1.1/DTD/svg11.dtd" [
    <!ENTITY stroke_color "#666666">
    <!ENTITY fill_color "#FFFFFF">
]>
<svg version="1.1" id="wasser" xmlns="http://www.w3.org/2000/svg" xmlns:xlink="http://www.w3.org/1999/xlink" x="0px" y="0px"
	 width="55px" height="55px" viewBox="-5 -5 60 60" enable-background="new 5 5 45 45" xml:space="preserve">
		<path fill="&fill_color;" stroke="&stroke_color;" d="M20.539,30.424c-7.435-5.2-13.679-5.496-20.538-1.16v6.119
			c6.325-5.027,10.973-5.037,17.59-0.377c9.949,7.004,18.18,6.948,27.41-0.364v-6.657C35.662,36.711,29.266,36.526,20.539,30.424z
			 M43.063,6.228c-9.134,8.312-15.376,8.131-23.884,2.313C12.241,3.799,6.359,3.348,0,6.931v5.661
			c5.742-4.122,10.146-3.921,16.295,0.312C26.682,20.051,35.162,19.485,45,10.971V4.609C44.359,5.111,43.71,5.636,43.063,6.228z
			 M19.79,19.405C12.628,14.452,6.578,14.066,0,17.974v5.871c5.995-4.512,10.516-4.395,16.875,0.035
			C27.067,30.976,35.443,30.671,45,22.707v-6.576c-0.342,0.287-0.682,0.575-1.023,0.891C34.734,25.551,28.415,25.365,19.79,19.405z"
			/>
</svg>