<?xml version="1.0" encoding="UTF-8"?>
<!DOCTYPE svg PUBLIC "-//W3C//DTD SVG 1.1//EN" "http://www.w3.org/Graphics/SVG/1.1/DTD/svg11.dtd" [
    <!ENTITY stroke_color "#666666">
    <!ENTITY fill_color "#FFFFFF">
]>
<svg version="1.1" id="photo" xmlns="http://www.w3.org/2000/svg" xmlns:xlink="http://www.w3.org/1999/xlink" x="0px" y="0px"
	 width="55px" height="55px" viewBox="-5 -5 60 60" enable-background="new 5 5 45 45" xml:space="preserve">
		<path fill="&fill_color;" stroke="&stroke_color;" d="M38.182,7.225H36.73c0.054-0.22,0.089-0.446,0.089-0.681
			c0-1.583-1.282-2.863-2.863-2.863h-5.726c-1.584,0-2.867,1.28-2.867,2.863c0,0.234,0.039,0.461,0.093,0.681H6.82
			C3.054,7.225,0,10.277,0,14.043v20.455c0,3.766,3.053,6.819,6.819,6.819h31.362c3.769,0,6.818-3.054,6.818-6.819V14.043
			C45,10.277,41.951,7.225,38.182,7.225z M4.909,13.361c0-1.581,1.283-2.863,2.865-2.863h5.729c1.58,0,2.863,1.282,2.863,2.863
			c0,1.582-1.284,2.865-2.863,2.865H7.774C6.192,16.227,4.909,14.943,4.909,13.361z M21.82,36.885c-5.459,0-9.887-4.427-9.887-9.887
			c0-5.459,4.428-9.887,9.887-9.887c5.461,0,9.887,4.428,9.887,9.887C31.707,32.458,27.281,36.885,21.82,36.885z"/>
</svg>