<?xml version="1.0" encoding="UTF-8"?>
<!DOCTYPE svg PUBLIC "-//W3C//DTD SVG 1.1//EN" "http://www.w3.org/Graphics/SVG/1.1/DTD/svg11.dtd" [
    <!ENTITY stroke_color "#666666">
    <!ENTITY fill_color "#FFFFFF">
]>
<svg version="1.1" id="text" xmlns="http://www.w3.org/2000/svg" xmlns:xlink="http://www.w3.org/1999/xlink" x="0px" y="0px"
	 width="55px" height="55px" viewBox="-5 -5 60 60" enable-background="new 5 5 45 45" xml:space="preserve">
		<path fill="&fill_color;" stroke="&stroke_color;" d="M13.352,10.936c0.275-0.603,0.592-1.175,0.95-1.715
			c0.358-0.538,0.748-1.021,1.175-1.445c0.424-0.425,0.834-0.661,1.228-0.713c0.502-0.058,1.858,0.028,1.858,0.028l0.019,14.931
			c0,0.49-0.093,0.883-0.278,1.176c-0.184,0.292-0.476,0.518-0.87,0.672c-0.263,0.108-0.736,0.2-1.423,0.27
			c-0.688,0.071-1.844,0.12-2.178,0.144v5.562l17.864-0.07v-5.559c-0.383-0.015-1.753-0.091-2.44-0.238
			c-0.687-0.142-1.137-0.186-1.355-0.269c-0.417-0.179-0.711-0.433-0.877-0.765c-0.166-0.327-0.251-0.69-0.251-1.085V6.922
			c0,0,1.095,0.062,1.749,0.141c0.394,0.063,0.801,0.299,1.228,0.713c0.426,0.412,0.814,0.895,1.175,1.445
			c0.347,0.528,0.664,1.086,0.943,1.68c0.284,0.593,0.479,1.104,0.583,1.535h3.327V0H9.224v12.436h3.556
			C12.887,12.041,13.079,11.539,13.352,10.936z M11.524,2.265h22.163v6.916H32.45c-0.104-0.429-0.299-0.942-0.583-1.535
			c-0.28-0.593-0.597-1.154-0.943-1.681c-0.36-0.552-0.749-1.031-1.175-1.444c-0.427-0.415-0.834-0.651-1.228-0.71
			c-0.375-0.048-0.838-0.086-1.403-0.109c-0.563-0.021-1.085-0.035-1.563-0.035h-1.042v20.389c0,0.396,0.085,0.755,0.254,1.088
			c0.166,0.328,0.456,0.579,0.877,0.761c0.213,0.084,0.664,0.199,1.351,0.342c0.687,0.142,1.222,0.224,1.601,0.232v1.273H16.595
			v-1.273c0.334-0.023,0.846-0.071,1.533-0.143c0.687-0.071,1.161-0.161,1.423-0.271c0.394-0.152,0.683-0.381,0.87-0.675
			c0.184-0.29,0.277-0.685,0.277-1.174V3.666h-1.04c-0.369,0-0.829,0.008-1.379,0.027c-0.55,0.017-1.073,0.058-1.576,0.117
			c-0.393,0.047-0.803,0.284-1.228,0.71c-0.427,0.422-0.817,0.904-1.175,1.444c-0.358,0.539-0.675,1.111-0.95,1.717
			c-0.272,0.604-0.464,1.105-0.571,1.499h-1.256V2.265z M0,44.999h45v-2.51H0V44.999z M0,33.854v2.511h45v-2.511H0z M0,40.678h45
			v-2.509H0V40.678z"/>
</svg>