<?xml version="1.0" encoding="UTF-8" standalone="no"?>
<!DOCTYPE svg	[
<!ENTITY stroke_color "#010101">
<!ENTITY fill_color "#FFFFFF">
]
>

<svg enable-background="new 0 0 55 55" height="40px" version="1.1" viewBox="0 0 55 55" width="40px" x="0px" xml:space="preserve" xmlns="http://www.w3.org/2000/svg" xmlns:xlink="http://www.w3.org/1999/xlink" y="0px">
    <g id="world" fill="&fill_color;" stroke="&stroke_color;"
        transform="matrix(1.2528044,0,0,1.2343849,-0.6164326,-0.350936)">
        <path d="M 41.585995,21.282838 C 41.585995,31.992556 32.903892,40.674561 22.195647,40.674561 C 11.486421,40.674561 2.8048081,31.992458 2.8048081,21.282838 C 2.8048081,10.573611 11.486421,1.8924906 22.195647,1.8924906 C 32.903892,1.8924906 41.585995,10.573611 41.585995,21.282838 L 41.585995,21.282838 z" id="path24508"/>
    </g>
    <g id="CONTINENTS" fill="&stroke_color;">
        <g id="g4138" stroke-width="1.0" transform="matrix(1.1852704,0,0,1.1852704,-1.0222509,-1.924654)">
            <g id="g4142">
                <path d="M 44.0713,20.7144 C 44.0713,20.9771 44.0713,20.7144 44.0713,20.7144 L 43.5264,21.3316 C 43.1924,20.938 42.8174,20.607 42.4366,20.2613 L 41.6007,20.3843 L 40.837,19.521 L 40.837,20.5894 L 41.4913,21.0845 L 41.9268,21.5777 L 42.5088,20.9195 C 42.6553,21.1939 42.7998,21.4683 42.9453,21.7427 L 42.9453,22.565 L 42.29,23.3052 L 41.0908,24.1284 L 40.1826,25.0347 L 39.6006,24.3745 L 39.8916,23.6343 L 39.3105,22.9761 L 38.3291,20.8784 L 37.4932,19.9331 L 37.2744,20.1792 L 37.6025,21.3726 L 38.2197,22.0718 C 38.5722,23.0894 38.9209,24.062 39.3838,25.0347 C 40.1016,25.0347 40.7783,24.9585 41.4912,24.8687 L 41.4912,25.4449 L 40.6191,27.5841 L 39.8193,28.4884 L 39.165,29.8888 C 39.165,30.6564 39.165,31.424 39.165,32.1915 L 39.3838,33.0978 L 39.0205,33.508 L 38.2197,34.0021 L 37.3838,34.7013 L 38.0752,35.4826 L 37.1299,36.3068 L 37.3115,36.84 L 35.8935,38.4455 L 34.9492,38.4455 L 34.1494,38.9396 L 33.6396,38.9396 L 33.6396,38.2814 L 33.4228,36.963 C 33.1415,36.1368 32.8486,35.3165 32.5507,34.4962 C 32.5507,33.8907 32.5868,33.2911 32.623,32.6857 L 32.9873,31.8634 L 32.4775,30.8751 L 32.5146,29.5177 L 31.8232,28.7364 L 32.1689,27.6055 L 31.6064,26.9673 L 30.624,26.9673 L 30.2969,26.5972 L 29.3155,27.2149 L 28.9161,26.7613 L 28.0069,27.543 C 27.3897,26.8433 26.7715,26.1441 26.1534,25.4449 L 25.4268,23.7164 L 26.0811,22.7301 L 25.7178,22.319 L 26.5166,20.4254 C 27.1729,19.609 27.8584,18.8258 28.5518,18.0397 L 29.7881,17.7106 L 31.169,17.5465 L 32.1143,17.7936 L 33.459,19.15 L 33.9317,18.6158 L 34.585,18.5338 L 35.8213,18.9449 L 36.7666,18.9449 L 37.4209,18.3687 L 37.7119,17.9576 L 37.0566,17.5465 L 35.9658,17.4645 C 35.6631,17.0446 35.3818,16.6032 35.0224,16.2301 L 34.6581,16.3942 L 34.5126,17.4645 L 33.8583,16.7243 L 33.7138,15.9001 L 32.9872,15.3259 L 32.6952,15.3259 L 33.4227,16.1482 L 33.1317,16.8884 L 32.5506,17.0525 L 32.9139,16.3123 L 32.2586,15.9842 L 31.6785,15.326 L 30.5867,15.5721 L 30.4422,15.9002 L 29.7879,16.3123 L 29.4246,17.2176 L 28.5164,17.6697 L 28.116,17.2176 L 27.6805,17.2176 L 27.6805,15.7362 L 28.6258,15.2421 L 29.3524,15.2421 L 29.2059,14.6669 L 28.6258,14.0907 L 29.6063,13.8846 L 30.1512,13.2684 L 30.5867,12.5272 L 31.3875,12.5272 L 31.1687,11.952 L 31.6785,11.6229 L 31.6785,12.2811 L 32.7683,12.5272 L 33.8581,11.6229 L 33.9313,11.2108 L 34.8756,10.5531 C 34.5338,10.5956 34.192,10.6268 33.858,10.7177 L 33.858,9.9766 L 34.2213,9.1538 L 33.858,9.1538 L 33.0596,9.894 L 32.8408,10.3056 L 33.0596,10.8823 L 32.6953,11.8686 L 32.1142,11.5395 L 31.6064,10.9643 L 30.8056,11.5395 L 30.5146,10.2236 L 31.8955,9.3188 L 31.8955,8.8247 L 32.7685,8.249 L 34.1494,7.9194 L 35.0947,8.249 L 36.8388,8.5781 L 36.4033,9.0713 L 35.458,9.0713 L 36.4033,10.0586 L 37.1299,9.2363 L 37.3506,8.8745 C 37.3506,8.8745 40.1377,11.3725 41.7305,14.105 C 43.3233,16.8384 44.0713,20.0601 44.0713,20.7144 z" id="path4144"/>
            </g>
        </g>
        <g transform="matrix(1.1852704,0,0,1.1996876,0.2872729,0.3824447)" id="g4230">
            <g id="g4234">
                <path d="M 18.7285,14.6665 L 19.165,14.0083 L 18.5102,13.5151 L 18.7285,14.6665" id="path4236"/>
            </g>
        </g>
        <g transform="matrix(1.1852704,0,0,1.1996876,0.1682253,-1.6413648)" id="g24546">
            <g id="g3230">
                <path d="M 26.0703,9.2363 L 25.9971,9.7295 L 26.5069,10.0586 L 27.378,9.4829 L 26.9425,8.9892 L 26.3605,9.3188 L 26.0705,9.2363" id="path3232"/>
            </g>
        </g>
        <g transform="matrix(1.1852704,0,0,1.1996876,0.4658443,-1.6711267)" id="g3234">
            <g id="g3238">
                <path d="M 26.8701,5.8633 L 24.9795,5.1226 L 22.7998,5.3692 L 20.1094,6.1094 L 19.6006,6.6035 L 21.2725,7.7549 L 21.2725,8.4131 L 20.6182,9.0713 L 21.4912,10.8003 L 22.0713,10.4702 L 22.7998,9.3188 C 23.9228,8.9716 24.9297,8.5781 25.9971,8.0844 L 26.8701,5.8632" id="path3240"/>
            </g>
        </g>
        <g transform="matrix(1.1852704,0,0,1.1852704,-1.1412985,-3.0853682)" id="g3242">
            <g id="g3246">
                <path d="M 28.833,12.7749 L 28.542,12.0337 L 28.0322,12.1987 L 28.1787,13.103 L 28.833,12.7749" id="path3248"/>
            </g>
        </g>
        <g transform="matrix(1.1852704,0,0,1.1852704,-1.0520128,-2.4603682)" id="g3250">
            <g id="g3254">
                <path d="M 29.123,12.6089 L 28.9775,13.5972 L 29.7773,13.4322 L 30.3584,12.857 L 29.8496,12.3629 C 29.6787,11.9078 29.4824,11.483 29.2685,11.0465 L 28.833,11.0465 L 28.833,11.5397 L 29.123,11.8688 L 29.123,12.609" id="path3256"/>
            </g>
        </g>
        <g transform="matrix(1.1852704,0,0,1.1996876,0.257511,0.62054)" id="g3266">
            <g id="g3270">
                <path d="M 16.7656,9.5649 L 17.4922,10.0586 L 18.0742,10.0586 L 18.0742,9.4829 L 17.3476,9.1538 L 16.7656,9.5649" id="path3272"/>
            </g>
        </g>
        <g transform="matrix(1.1852704,0,0,1.1996876,0.257511,0.62054)" id="g3274">
            <g id="g3278">
                <path d="M 14.876,8.9072 L 14.5122,9.812 L 15.2393,9.812 L 15.6031,8.9892 C 15.9166,8.7675 16.2286,8.5444 16.5479,8.331 L 17.275,8.5781 C 17.7594,8.9072 18.2438,9.2363 18.7286,9.5649 L 19.4561,8.9072 L 18.6558,8.5781 L 18.292,7.8374 L 16.9111,7.6728 L 16.8383,7.2612 L 16.184,7.4262 L 15.8936,8.002 L 15.5298,7.2613 L 15.3848,7.5904 L 15.4576,8.4132 L 14.876,8.9072" id="path3280"/>
            </g>
        </g>
        <g transform="matrix(1.1852704,0,0,1.1996876,0.257511,0.62054)" id="g3302">
            <g id="g3306">
                <path d="M 17.4922,6.8496 L 17.856,6.521 L 18.5831,6.3564 C 19.0811,6.1142 19.5811,5.9511 20.1095,5.7802 L 19.8195,5.2865 L 18.881,5.4213 L 18.4376,5.8632 L 17.7066,5.9692 L 17.0567,6.2744 L 16.7408,6.4272 L 16.5479,6.6855 L 17.4922,6.8496" id="path3308"/>
            </g>
        </g>
        <g transform="matrix(1.1852704,0,0,1.1996876,0.2872729,0.3824447)" id="g3310">
            <g id="g3314">
                <path d="M 18.7285,14.6665 L 19.165,14.0083 L 18.5102,13.5151 L 18.7285,14.6665" id="path3316"/>
            </g>
        </g>
        <path d="M 17.39615,31.263391 L 16.728571,29.905514 L 15.47795,29.61492 L 14.810944,27.773662 L 13.143603,27.967038 L 11.726546,26.901407 L 10.224952,28.258222 L 10.224952,28.472221 C 9.7707223,28.337529 9.2123421,28.319145 8.8078941,28.063667 L 8.4741051,27.094665 L 8.4741051,26.027855 L 7.4737688,26.124484 C 7.5572728,25.445486 7.6400898,24.767667 7.7241678,24.088788 L 7.1399788,24.088788 L 6.5569368,24.864415 L 5.9727478,25.15442 L 5.1387328,24.671038 L 5.0552288,23.604228 L 5.2221238,22.440789 L 6.4733178,21.471786 L 7.4736538,21.471786 L 7.6399748,20.889536 L 8.8905961,21.179541 L 9.8080012,22.34416 L 9.9748959,20.403915 L 11.559307,19.0471 L 12.142922,17.592476 L 13.310153,17.108034 L 13.977159,16.139031 L 15.477606,15.846787 L 16.228689,14.684525 C 15.478179,14.684525 14.727669,14.684525 13.977159,14.684525 L 15.394674,14.005529 L 16.394437,14.005529 L 17.812526,13.519908 L 17.979421,12.939896 L 17.478737,12.454275 L 16.895121,12.259839 L 17.062016,11.678649 L 16.645295,10.806394 L 15.644386,11.193028 L 15.81128,10.417991 L 14.64405,9.7389944 L 13.727218,11.386287 L 13.810149,11.968537 L 12.893318,12.357529 L 12.309129,13.617598 L 12.059303,12.454158 L 10.474893,11.77516 L 10.224493,10.902905 L 12.309129,9.6416577 L 13.226534,8.7694024 L 13.310039,7.7031811 L 12.809928,7.4119971 L 12.142922,7.3147786 L 11.726202,8.3815889 C 11.726202,8.3815889 11.028914,8.5219375 10.849632,8.5674231 C 8.5600181,10.734982 3.9337648,15.414076 2.8589858,24.24752 C 2.9015408,24.452327 3.6380568,25.639924 3.6380568,25.639924 L 5.3889038,26.705555 L 7.1397498,27.191176 L 7.8908341,28.16124 L 9.0574911,29.033495 L 9.7244964,28.936866 L 10.224608,29.168187 L 10.224608,29.324679 L 9.5580601,31.166527 L 9.0573761,31.942153 L 9.2242711,32.331144 L 8.8075501,33.783411 L 10.308571,36.59591 L 11.809018,37.953788 L 12.476597,38.92279 L 12.392634,40.959664 L 12.893318,42.121924 L 12.392634,44.352174 C 12.392634,44.352174 12.353405,44.338387 12.417295,44.561577 C 12.481759,44.784885 15.088873,46.271679 15.25462,46.145118 C 15.419795,46.016201 15.560996,45.903427 15.560996,45.903427 L 15.394674,45.420045 L 16.061221,44.741048 L 16.311621,44.062051 L 17.39592,43.673059 L 18.229362,41.539556 L 17.979536,40.959545 L 18.562004,40.08729 L 19.813198,39.795046 L 20.480777,38.243793 L 20.313883,36.305905 L 21.314219,34.851282 L 21.481113,33.396658 C 20.112232,32.699279 18.754592,31.981158 17.39592,31.263156" id="path3264"/></g>

    <!-- <g transform="matrix(1.9325773,0,0,1.9325773,-16.529422,-14.929222)"
        id="xo">
        <path d="M 28.432359,15.794293 C 27.472854,16.707715 22.139375,21.73866 22.108315,21.712392 C 20.383411,20.253568 19.938369,19.814624 16.244366,16.021677 L 11.71718,11.002115 C 11.204356,10.784544 10.66706,10.810062 10.160303,11.145536 C 9.6608203,11.6324 9.4671013,12.070702 9.6091013,12.652382 C 11.021664,14.723106 12.592161,16.678804 14.378198,18.60022 L 19.700234,23.757305 L 13.479672,29.834069 C 12.812868,30.537221 12.93682,31.188585 13.55743,31.97426 C 14.175473,32.521092 15.182844,32.730558 15.967897,31.974263 L 22.43037,25.785761 C 24.175583,26.920319 25.578765,27.709786 27.614171,28.570586 C 29.296027,29.035882 30.908765,29.283908 32.556062,29.223816 C 33.945861,28.89596 34.989581,28.612639 36.046489,27.882976 C 36.438734,27.304235 36.477022,26.691114 36.288399,26.095185 C 35.98002,25.673944 35.753171,25.223947 34.6987,25.270051 C 30.563178,27.046381 28.293826,24.984326 25.091388,23.172838 C 27.268585,21.144383 28.705624,19.764745 31.622978,17.087477 C 32.156446,16.321084 31.649343,15.667269 31.216913,15.205141 C 30.741565,14.725776 29.863255,14.672591 29.468616,14.959602 C 29.068211,15.250805 28.364642,15.845382 28.360447,15.846962 M 25.209455,13.37858 C 25.209455,14.783527 24.027208,15.922461 22.568833,15.922461 C 21.110457,15.922461 19.928209,14.783527 19.928209,13.37858 C 19.928209,11.973634 21.110457,10.8347 22.568833,10.8347 C 24.027208,10.8347 25.209455,11.973634 25.209455,13.37858 z"
        id="xo_icon"
        fill="none"
        stroke="none"
        stroke-width="1.3"
        />
        </g> -->
</svg>
